<svg xmlns="http://www.w3.org/2000/svg" width="29.822" height="36.979" viewBox="0 0 29.822 36.979">
  <path id="icons8_resume" d="M15,9V45.979H44.822V9Zm1.193,1.193H43.629V44.786H16.193Zm2.982,1.193a.6.6,0,1,0,.6.6A.6.6,0,0,0,19.175,11.386Zm0,2.386a.6.6,0,1,0,.6.6A.6.6,0,0,0,19.175,13.772Zm7.157,0a2.969,2.969,0,0,0-1.92,5.244,4.178,4.178,0,0,0-2.255,3.7H23.35a2.982,2.982,0,1,1,5.964,0h1.193a4.179,4.179,0,0,0-2.255-3.7,2.969,2.969,0,0,0-1.92-5.244Zm6.561.6v1.193H40.05V14.368Zm-6.561.6a1.789,1.789,0,1,1-1.789,1.789A1.781,1.781,0,0,1,26.332,14.964Zm-7.157,1.193a.6.6,0,1,0,.6.6A.6.6,0,0,0,19.175,16.157Zm13.718,1.789v1.193H40.05V17.947Zm-13.718.6a.6.6,0,1,0,.6.6A.6.6,0,0,0,19.175,18.543Zm0,2.386a.6.6,0,1,0,.6.6A.6.6,0,0,0,19.175,20.929Zm13.718.6v1.193H40.05V21.525ZM19.175,23.315a.6.6,0,1,0,.6.6A.6.6,0,0,0,19.175,23.315Zm0,2.386a.6.6,0,1,0,.6.6A.6.6,0,0,0,19.175,25.7Zm0,2.386a.6.6,0,1,0,.6.6A.6.6,0,0,0,19.175,28.086Zm2.982,0v1.193H40.05V28.086Zm-2.982,2.386a.6.6,0,1,0,.6.6A.6.6,0,0,0,19.175,30.472Zm2.982,1.789v1.193H36.472V32.261Zm-2.982.6a.6.6,0,1,0,.6.6A.6.6,0,0,0,19.175,32.858Zm0,2.386a.6.6,0,1,0,.6.6A.6.6,0,0,0,19.175,35.243Zm2.982,1.193v1.193H40.05V36.436Zm-2.982,1.193a.6.6,0,1,0,.6.6A.6.6,0,0,0,19.175,37.629Zm0,2.386a.6.6,0,1,0,.6.6A.6.6,0,0,0,19.175,40.015Zm2.982.6V41.8H36.472V40.611ZM19.175,42.4a.6.6,0,1,0,.6.6A.6.6,0,0,0,19.175,42.4Z" transform="translate(-15 -9)" fill="#0074af"/>
</svg>
