<svg xmlns="http://www.w3.org/2000/svg" width="19.091" height="14.849" viewBox="0 0 19.091 14.849">
  <path id="Icon_awesome-address-card" data-name="Icon awesome-address-card" d="M17.5,1.061H1.591A1.591,1.591,0,0,0,0,2.652V14.318a1.591,1.591,0,0,0,1.591,1.591H17.5a1.591,1.591,0,0,0,1.591-1.591V2.652A1.591,1.591,0,0,0,17.5,1.061ZM5.833,4.242A2.121,2.121,0,1,1,3.712,6.364,2.123,2.123,0,0,1,5.833,4.242Zm3.712,7.849a.7.7,0,0,1-.742.636H2.864a.7.7,0,0,1-.742-.636v-.636A2.087,2.087,0,0,1,4.349,9.546h.166a3.414,3.414,0,0,0,2.638,0h.166a2.087,2.087,0,0,1,2.227,1.909v.636Zm7.424-1.75a.266.266,0,0,1-.265.265H11.932a.266.266,0,0,1-.265-.265v-.53a.266.266,0,0,1,.265-.265H16.7a.266.266,0,0,1,.265.265Zm0-2.121a.266.266,0,0,1-.265.265H11.932a.266.266,0,0,1-.265-.265V7.69a.266.266,0,0,1,.265-.265H16.7a.266.266,0,0,1,.265.265Zm0-2.121a.266.266,0,0,1-.265.265H11.932a.266.266,0,0,1-.265-.265v-.53a.266.266,0,0,1,.265-.265H16.7a.266.266,0,0,1,.265.265Z" transform="translate(0 -1.061)" fill="#35cbcc"/>
</svg>
