<svg xmlns="http://www.w3.org/2000/svg" width="15.909" height="16.968" viewBox="0 0 15.909 16.968">
  <path id="Icon_awesome-shield-alt" data-name="Icon awesome-shield-alt" d="M15.462,2.774,9.1.123a1.6,1.6,0,0,0-1.223,0L1.511,2.774A1.589,1.589,0,0,0,.53,4.242c0,6.579,3.8,11.127,7.342,12.6a1.6,1.6,0,0,0,1.223,0c2.84-1.183,7.345-5.27,7.345-12.6a1.591,1.591,0,0,0-.978-1.468ZM8.488,14.792l0-12.628,5.83,2.429c-.109,5.018-2.721,8.654-5.827,10.2Z" transform="translate(-0.53 -0.001)" fill="#35cbcc"/>
</svg>
