<svg xmlns="http://www.w3.org/2000/svg" width="16.97" height="16.97" viewBox="0 0 16.97 16.97">
  <path id="Icon_awesome-phone-alt" data-name="Icon awesome-phone-alt" d="M16.486,11.992,12.774,10.4a.8.8,0,0,0-.928.229L10.2,12.638A12.285,12.285,0,0,1,4.329,6.765L6.337,5.121a.793.793,0,0,0,.229-.928L4.975.481A.8.8,0,0,0,4.064.02L.616.816A.8.8,0,0,0,0,1.591,15.377,15.377,0,0,0,15.379,16.97a.8.8,0,0,0,.776-.616l.8-3.447A.805.805,0,0,0,16.486,11.992Z" transform="translate(0 0)" fill="#35cbcc"/>
</svg>
