<svg xmlns="http://www.w3.org/2000/svg" width="158.225" height="154.09" viewBox="0 0 158.225 154.09">
  <path id="Intersection_1" data-name="Intersection 1" d="M-1387.725-897.5h2.036q.264,1.4.549,2.794a189.016,189.016,0,0,0,11.07,35.662,190,190,0,0,0,17.518,32.274,191.344,191.344,0,0,0,23.2,28.12,191.3,191.3,0,0,0,28.12,23.2,190.028,190.028,0,0,0,32.273,17.518,189.04,189.04,0,0,0,35.662,11.07q3.875.793,7.794,1.424v2.027A192.177,192.177,0,0,1-1387.725-897.5Zm53.265,0h2.07a137.362,137.362,0,0,0,6.234,18.215,138.018,138.018,0,0,0,12.723,23.44,139.057,139.057,0,0,0,16.852,20.425,139.007,139.007,0,0,0,20.425,16.852,138.015,138.015,0,0,0,23.44,12.723,137.377,137.377,0,0,0,23.216,7.462v2.05A140.224,140.224,0,0,1-1334.46-897.5Zm35.551,0h2.126q.913,2.517,1.955,4.981a104.084,104.084,0,0,0,9.589,17.665,104.712,104.712,0,0,0,12.7,15.393,104.716,104.716,0,0,0,15.393,12.7,104.049,104.049,0,0,0,17.665,9.589,103.325,103.325,0,0,0,9.981,3.627v2.091A106.263,106.263,0,0,1-1298.909-897.5Zm33.826,0h2.282q1.519,2.725,3.267,5.314a73.553,73.553,0,0,0,8.915,10.8,73.553,73.553,0,0,0,10.8,8.915,73.132,73.132,0,0,0,10.314,5.809v2.2A75.308,75.308,0,0,1-1265.083-897.5Z" transform="translate(1387.725 897.5)" fill="#ceeaf6" opacity="0.31"/>
</svg>
