<svg xmlns="http://www.w3.org/2000/svg" width="15.596" height="15.596" viewBox="0 0 15.596 15.596">
  <path id="icons8_questions_2" d="M5.418,4A1.417,1.417,0,0,0,4,5.418V18.179A1.417,1.417,0,0,0,5.418,19.6h1.1a2.807,2.807,0,0,1-.395-1.418V5.418A2.807,2.807,0,0,1,6.521,4ZM8.963,4A1.417,1.417,0,0,0,7.545,5.418V18.179A1.417,1.417,0,0,0,8.963,19.6h9.216A1.417,1.417,0,0,0,19.6,18.179V5.418A1.417,1.417,0,0,0,18.179,4Zm4.608,2.836a2.839,2.839,0,0,1,2.836,2.836,3.3,3.3,0,0,1-1.369,2.481c-.469.433-.757.717-.757,1.063H12.862a2.9,2.9,0,0,1,1.213-2.106c.566-.523.914-.872.914-1.439a1.418,1.418,0,0,0-2.836,0H10.735A2.839,2.839,0,0,1,13.571,6.836Zm0,8.258a.963.963,0,1,1,0,1.916c-.668,0-1.066-.355-1.066-.953A.933.933,0,0,1,13.573,15.094Z" transform="translate(-4 -4)" fill="#636363"/>
</svg>
