<svg xmlns="http://www.w3.org/2000/svg" width="30.889" height="30.829" viewBox="0 0 30.889 30.829">
  <path id="icons8_inscription_2" d="M6.013,4A2.016,2.016,0,0,0,4,6.013V29.5a2.016,2.016,0,0,0,2.013,2.013H27.737L30.24,34a2.7,2.7,0,0,0,3.893,0,2.885,2.885,0,0,0,0-3.892l-1.946-1.922V6.013A2.016,2.016,0,0,0,30.173,4Zm4.027,6.04H26.147a.671.671,0,0,1,0,1.342H10.04a.671.671,0,1,1,0-1.342Zm0,4.7H26.147a.671.671,0,0,1,0,1.342H10.04a.671.671,0,1,1,0-1.342Zm0,4.7h6.711a.671.671,0,0,1,0,1.342H10.04a.671.671,0,1,1,0-1.342ZM21.074,21.06l2.715.724.1.1-1.992,1.948-.046-.046Zm3.763,1.764,7.846,7.791-2,2-7.84-7.844Z" transform="translate(-4 -4)" fill="#64a0ea"/>
</svg>
