<svg xmlns="http://www.w3.org/2000/svg" width="14.84" height="16.961" viewBox="0 0 14.84 16.961">
  <path id="Icon_awesome-calendar-alt" data-name="Icon awesome-calendar-alt" d="M0,15.37a1.59,1.59,0,0,0,1.59,1.59H13.25a1.59,1.59,0,0,0,1.59-1.59V6.36H0ZM10.6,8.878a.4.4,0,0,1,.4-.4h1.325a.4.4,0,0,1,.4.4V10.2a.4.4,0,0,1-.4.4H11a.4.4,0,0,1-.4-.4Zm0,4.24a.4.4,0,0,1,.4-.4h1.325a.4.4,0,0,1,.4.4v1.325a.4.4,0,0,1-.4.4H11a.4.4,0,0,1-.4-.4ZM6.36,8.878a.4.4,0,0,1,.4-.4H8.083a.4.4,0,0,1,.4.4V10.2a.4.4,0,0,1-.4.4H6.758a.4.4,0,0,1-.4-.4Zm0,4.24a.4.4,0,0,1,.4-.4H8.083a.4.4,0,0,1,.4.4v1.325a.4.4,0,0,1-.4.4H6.758a.4.4,0,0,1-.4-.4ZM2.12,8.878a.4.4,0,0,1,.4-.4H3.843a.4.4,0,0,1,.4.4V10.2a.4.4,0,0,1-.4.4H2.518a.4.4,0,0,1-.4-.4Zm0,4.24a.4.4,0,0,1,.4-.4H3.843a.4.4,0,0,1,.4.4v1.325a.4.4,0,0,1-.4.4H2.518a.4.4,0,0,1-.4-.4Zm11.13-11H11.66V.53A.532.532,0,0,0,11.13,0H10.07a.532.532,0,0,0-.53.53V2.12H5.3V.53A.532.532,0,0,0,4.77,0H3.71a.532.532,0,0,0-.53.53V2.12H1.59A1.59,1.59,0,0,0,0,3.71V5.3H14.84V3.71A1.59,1.59,0,0,0,13.25,2.12Z" fill="#35cbcc"/>
</svg>
