<svg xmlns="http://www.w3.org/2000/svg" width="16.44" height="16.44" viewBox="0 0 16.44 16.44">
  <path id="Icon_awesome-globe-africa" data-name="Icon awesome-globe-africa" d="M8.22.265a8.22,8.22,0,1,0,8.22,8.22A8.22,8.22,0,0,0,8.22.265Zm5.3,7.143v.23a.514.514,0,0,1-.284.459l-.51.255a.513.513,0,0,1-.515-.032l-.6-.4a.514.514,0,0,0-.447-.06l-.088.029a.513.513,0,0,0-.265.772l.439.658a.513.513,0,0,0,.427.229h.272a.514.514,0,0,1,.514.514v.376a.514.514,0,0,1-.1.308l-.621.828a.516.516,0,0,0-.094.213l-.143.757a.515.515,0,0,1-.158.284,5.29,5.29,0,0,0-.829.966l-.432.648a.92.92,0,0,1-1.588-.1,2.615,2.615,0,0,1-.276-1.17v-.991a.514.514,0,0,0-.514-.514H6.848A1.811,1.811,0,0,1,5.038,9.856V9.39a1.811,1.811,0,0,1,.724-1.448l.914-.686a1.812,1.812,0,0,1,1.086-.362h.029a1.807,1.807,0,0,1,.81.191l.488.244a.513.513,0,0,0,.392.028l1.568-.523a.514.514,0,0,0-.162-1h-.334a.514.514,0,0,1-.363-.15L9.96,5.453A.514.514,0,0,0,9.6,5.3H6.612A.514.514,0,0,1,6.1,4.789V4.643a.514.514,0,0,1,.389-.5l.479-.12a.515.515,0,0,0,.3-.213l.268-.4a.513.513,0,0,1,.427-.229h.8a.514.514,0,0,0,.514-.514V1.949a6.638,6.638,0,0,1,5.367,4.945h-.611A.514.514,0,0,0,13.523,7.408Z" transform="translate(0 -0.265)" fill="#35cbcc"/>
</svg>
