<svg id="lock_open" data-name="lock open" xmlns="http://www.w3.org/2000/svg" width="22" height="22" viewBox="0 0 22 22">
  <path id="Path_46029" data-name="Path 46029" d="M14.9,4.8a5.5,5.5,0,0,0-5.5,5.5v2.2a2.2,2.2,0,0,0-2.2,2.2v5.5a2.2,2.2,0,0,0,2.2,2.2h11a2.2,2.2,0,0,0,2.2-2.2V14.7a2.2,2.2,0,0,0-2.2-2.2H11.6V10.3a3.3,3.3,0,0,1,6.495-.825,1.1,1.1,0,0,0,2.131-.55A5.5,5.5,0,0,0,14.9,4.8Z" transform="translate(-3.9 -2.6)" fill="#35cbcc"/>
  <path id="Path_46030" data-name="Path 46030" d="M0,0H22V22H0Z" fill="none"/>
</svg>
