<svg xmlns="http://www.w3.org/2000/svg" width="16.691" height="19.726" viewBox="0 0 16.691 19.726">
  <path id="icons8_headset" d="M13.346,3A8.373,8.373,0,0,0,5,11.346V15.9a2.284,2.284,0,0,0,1.517,2.134v.142a3.808,3.808,0,0,0,3.793,3.793h.972a1.5,1.5,0,0,0,1.3.759H14.1a1.517,1.517,0,1,0,0-3.035H12.587a1.5,1.5,0,0,0-1.3.759h-.972a2.277,2.277,0,0,1-2.276-2.276H9.552V11.346H6.517a6.828,6.828,0,1,1,13.657,0H17.139v6.828h2.276A2.288,2.288,0,0,0,21.691,15.9V11.346A8.373,8.373,0,0,0,13.346,3ZM6.517,12.863H8.035v3.793H7.276a.756.756,0,0,1-.759-.759Zm12.139,0h1.517V15.9a.756.756,0,0,1-.759.759h-.759Z" transform="translate(-5 -3)" fill="#00388b"/>
</svg>
