<svg xmlns="http://www.w3.org/2000/svg" width="46.354" height="46.354" viewBox="0 0 46.354 46.354">
  <path id="icons8_fingerprint_recognition_1" d="M5.783,1A4.773,4.773,0,0,0,1,5.783V11.3a1.084,1.084,0,0,0,1.1,1.1,1.084,1.084,0,0,0,1.1-1.1V5.783A2.559,2.559,0,0,1,5.783,3.207H11.3a1.084,1.084,0,0,0,1.1-1.1A1.084,1.084,0,0,0,11.3,1ZM37.053,1a1.084,1.084,0,0,0-1.1,1.1,1.084,1.084,0,0,0,1.1,1.1h5.518a2.559,2.559,0,0,1,2.575,2.575V11.3a1.1,1.1,0,1,0,2.207,0V5.783A4.773,4.773,0,0,0,42.572,1ZM24.069,5.273a19.16,19.16,0,0,0-5.484.841,1.094,1.094,0,0,0,.625,2.1A16.841,16.841,0,0,1,40.18,18.953a1.137,1.137,0,0,0,1.067.772,1.623,1.623,0,0,0,.368-.074,1.1,1.1,0,0,0,.7-1.4A19.206,19.206,0,0,0,24.069,5.273Zm.035,5.181A13.941,13.941,0,0,0,10.565,20.939a3.7,3.7,0,0,0,3.568,4.6A3.7,3.7,0,0,0,17.7,22.779a6.575,6.575,0,0,1,6.4-4.967,5.988,5.988,0,0,1,1.14.111,1.1,1.1,0,0,0,.4-2.171A10.466,10.466,0,0,0,24.14,15.6a8.857,8.857,0,0,0-8.572,6.622,1.479,1.479,0,0,1-2.612.515,1.4,1.4,0,0,1-.257-1.251,11.732,11.732,0,0,1,11.4-8.829,11.6,11.6,0,0,1,8.314,3.458,11.8,11.8,0,0,1,2.869,12.03l-.368,1.066A22.766,22.766,0,0,1,23.625,42.351a1.078,1.078,0,0,0-.479,1.472,1.117,1.117,0,0,0,.994.589,1.3,1.3,0,0,0,.515-.111,24.832,24.832,0,0,0,12.4-14.384l.295-1.067A13.927,13.927,0,0,0,24.1,10.454Zm-12.6.037a1.021,1.021,0,0,0-.759.331A19.288,19.288,0,0,0,6.04,18.291a1.128,1.128,0,0,0,.7,1.4,1.089,1.089,0,0,0,.368.073,1.107,1.107,0,0,0,1.03-.736,17.271,17.271,0,0,1,4.157-6.659,1.067,1.067,0,0,0,0-1.546A1.111,1.111,0,0,0,11.508,10.492Zm12.717,9.892a3.569,3.569,0,0,0-1.74.371,3.53,3.53,0,0,0-1.839,2.134l-.331,1.03a6.91,6.91,0,0,1-.809,1.656,1.092,1.092,0,1,0,1.839,1.177,9.052,9.052,0,0,0,1.03-2.171l.331-1.03a1.389,1.389,0,0,1,.736-.846,1.37,1.37,0,0,1,1.14-.073,1.513,1.513,0,0,1,.846.736,1.37,1.37,0,0,1,.073,1.14l-.368,1.067a12.51,12.51,0,0,1-10.374,8.461,1.089,1.089,0,0,0,.147,2.17h.147a14.736,14.736,0,0,0,12.214-9.97l.331-1.03a3.692,3.692,0,0,0-.184-2.8,3.53,3.53,0,0,0-2.134-1.839A3.955,3.955,0,0,0,24.224,20.384Zm7.494,1.568a1.061,1.061,0,0,0-.22.018,1.118,1.118,0,0,0-.883,1.288,5.988,5.988,0,0,1,.111,1.14v.037a6.531,6.531,0,0,1-.331,2.061l-.368,1.066A17.718,17.718,0,0,1,18.585,38.819a1.117,1.117,0,0,0-.736,1.4,1.1,1.1,0,0,0,1.066.772,1.019,1.019,0,0,0,.331-.036A19.976,19.976,0,0,0,32.123,28.3l.368-1.066a8.668,8.668,0,0,0,.442-2.759v-.037a7.442,7.442,0,0,0-.147-1.581A1.122,1.122,0,0,0,31.718,21.952ZM15.384,28.671a1.09,1.09,0,0,0-.22.032,8.225,8.225,0,0,1-1.876.257h-.92a1.1,1.1,0,0,0,0,2.207h.92a8.99,8.99,0,0,0,2.428-.331,1.084,1.084,0,0,0,.772-1.361A1.1,1.1,0,0,0,15.384,28.671ZM2.1,35.95a1.084,1.084,0,0,0-1.1,1.1v5.518a4.773,4.773,0,0,0,4.783,4.783H11.3a1.1,1.1,0,0,0,0-2.207H5.783a2.559,2.559,0,0,1-2.575-2.575V37.053A1.084,1.084,0,0,0,2.1,35.95Zm44.147,0a1.084,1.084,0,0,0-1.1,1.1v5.518a2.559,2.559,0,0,1-2.575,2.575H37.053a1.1,1.1,0,0,0,0,2.207h5.518a4.773,4.773,0,0,0,4.783-4.783V37.053A1.084,1.084,0,0,0,46.25,35.95Z" transform="translate(-1 -1)" fill="#fff"/>
</svg>
