<svg xmlns="http://www.w3.org/2000/svg" width="46.356" height="46.356" viewBox="0 0 46.356 46.356">
  <path id="icons8_face_id_1" d="M42.573,1H37.055a1.084,1.084,0,0,0-1.1,1.1,1.084,1.084,0,0,0,1.1,1.1h5.519a2.559,2.559,0,0,1,2.575,2.575V11.3a1.1,1.1,0,1,0,2.207,0V5.783A4.773,4.773,0,0,0,42.573,1ZM11.3,1H5.783A4.773,4.773,0,0,0,1,5.783V11.3a1.084,1.084,0,0,0,1.1,1.1,1.084,1.084,0,0,0,1.1-1.1V5.783A2.559,2.559,0,0,1,5.783,3.207H11.3a1.084,1.084,0,0,0,1.1-1.1A1.084,1.084,0,0,0,11.3,1ZM2.1,35.951a1.084,1.084,0,0,0-1.1,1.1v5.519a4.773,4.773,0,0,0,4.783,4.783H11.3a1.1,1.1,0,1,0,0-2.207H5.783a2.559,2.559,0,0,1-2.575-2.575V37.055A1.084,1.084,0,0,0,2.1,35.951Zm44.149,0a1.084,1.084,0,0,0-1.1,1.1v5.519a2.559,2.559,0,0,1-2.575,2.575H37.055a1.1,1.1,0,0,0,0,2.207h5.519a4.773,4.773,0,0,0,4.783-4.783V37.055A1.084,1.084,0,0,0,46.252,35.951Zm-25.018-6.99a1.018,1.018,0,0,0,.478-.11l2.943-1.472a1.108,1.108,0,0,0,.625-.993v-9.2a1.1,1.1,0,0,0-2.207,0v8.5l-2.318,1.177a1.059,1.059,0,0,0-.478,1.472A1,1,0,0,0,21.235,28.961ZM14.98,16.084a1.084,1.084,0,0,0-1.1,1.1v3.679a1.1,1.1,0,0,0,2.207,0V17.188A1.084,1.084,0,0,0,14.98,16.084Zm18.4,0a1.084,1.084,0,0,0-1.1,1.1v3.679a1.1,1.1,0,0,0,2.207,0V17.188A1.084,1.084,0,0,0,33.376,16.084ZM15.275,32.64a1.1,1.1,0,0,0,.074,1.545,13.1,13.1,0,0,0,17.659,0,1.094,1.094,0,1,0-1.472-1.619,10.868,10.868,0,0,1-14.716,0A1.1,1.1,0,0,0,15.275,32.64Z" transform="translate(-1 -1)" fill="#fff"/>
</svg>
