<svg xmlns="http://www.w3.org/2000/svg" width="24.742" height="29.24" viewBox="0 0 24.742 29.24">
  <path id="icons8_headset" d="M17.371,3A12.412,12.412,0,0,0,5,15.371v6.748a3.386,3.386,0,0,0,2.249,3.163v.211a5.645,5.645,0,0,0,5.623,5.623h1.441a2.229,2.229,0,0,0,1.933,1.125H18.5a2.249,2.249,0,0,0,0-4.5H16.246a2.229,2.229,0,0,0-1.933,1.125H12.872A3.375,3.375,0,0,1,9.5,25.492h2.249V15.371h-4.5a10.122,10.122,0,1,1,20.243,0h-4.5V25.492h3.374a3.392,3.392,0,0,0,3.374-3.374V15.371A12.412,12.412,0,0,0,17.371,3ZM7.249,17.62H9.5v5.623H8.374a1.121,1.121,0,0,1-1.125-1.125Zm17.994,0h2.249v4.5a1.121,1.121,0,0,1-1.125,1.125H25.243Z" transform="translate(-5 -3)" fill="#fff"/>
</svg>
