<svg xmlns="http://www.w3.org/2000/svg" width="99" height="114.231" viewBox="0 0 99 114.231">
  <path id="icons8_password" d="M53.6,0A36.214,36.214,0,0,0,17.423,36.173v9.519H11.712A5.723,5.723,0,0,0,6,51.4v57.115a5.723,5.723,0,0,0,5.712,5.712H99.288A5.723,5.723,0,0,0,105,108.519V51.4a5.723,5.723,0,0,0-5.712-5.712H93.577V36.173A36.214,36.214,0,0,0,57.4,0Zm0,3.808H57.4c.647,0,1.272.059,1.9.1V11.52c-.632-.052-1.257-.1-1.9-.1H53.6c-.647,0-1.272.045-1.9.1V3.9C52.324,3.867,52.949,3.808,53.6,3.808Zm-5.712.535v7.772A24.78,24.78,0,0,0,28.846,36.173v9.519H21.231V36.173A32.4,32.4,0,0,1,47.885,4.343Zm15.231,0a32.4,32.4,0,0,1,26.654,31.83v9.519H82.154V36.173A24.78,24.78,0,0,0,63.115,12.115ZM53.6,15.231H57.4A20.964,20.964,0,0,1,78.346,36.173v9.519H32.654V36.173A20.964,20.964,0,0,1,53.6,15.231ZM11.712,49.5H99.288a1.907,1.907,0,0,1,1.9,1.9v57.115a1.907,1.907,0,0,1-1.9,1.9H11.712a1.907,1.907,0,0,1-1.9-1.9V51.4A1.908,1.908,0,0,1,11.712,49.5ZM74.39,59.019a1.908,1.908,0,0,0-.454,3.711l4.41,1.465V74.25h-1.9a1.9,1.9,0,0,0,0,3.808h1.9V88.112l-4.41,1.465a1.9,1.9,0,0,0,.6,3.711,2.119,2.119,0,0,0,.6-.1l5.109-1.7,5.109,1.7a1.887,1.887,0,0,0,.6.1,1.9,1.9,0,0,0,.6-3.711l-4.41-1.465V78.058h1.9a1.9,1.9,0,0,0,0-3.808h-1.9V64.2l4.41-1.465a1.9,1.9,0,0,0-1.2-3.614l-5.109,1.7-5.109-1.7A2.03,2.03,0,0,0,74.39,59.019ZM28.846,72.346a3.808,3.808,0,1,0,3.808,3.808A3.805,3.805,0,0,0,28.846,72.346Zm17.135,0a3.808,3.808,0,1,0,3.808,3.808A3.805,3.805,0,0,0,45.981,72.346Zm17.135,0a3.808,3.808,0,1,0,3.808,3.808A3.805,3.805,0,0,0,63.115,72.346Zm-47.6,30.462a1.9,1.9,0,1,0,0,3.808H80.25a1.9,1.9,0,1,0,0-3.808Zm72.346,0a1.9,1.9,0,0,0,0,3.808h7.615a1.9,1.9,0,1,0,0-3.808Z" transform="translate(-6)" fill="#fff" opacity="0.5"/>
</svg>
