<svg xmlns="http://www.w3.org/2000/svg" width="122.801" height="122.801" viewBox="0 0 122.801 122.801">
  <path id="icons8_mail" d="M22.531,6A16.574,16.574,0,0,0,6,22.531V112.27A16.574,16.574,0,0,0,22.531,128.8H112.27A16.574,16.574,0,0,0,128.8,112.27V22.531A16.574,16.574,0,0,0,112.27,6Zm0,4.723H112.27a11.787,11.787,0,0,1,11.808,11.808V112.27a11.787,11.787,0,0,1-11.808,11.808H22.531A11.787,11.787,0,0,1,10.723,112.27V22.531A11.787,11.787,0,0,1,22.531,10.723Zm7.085,21.254a7.121,7.121,0,0,0-7.085,7.085V81.57a7.121,7.121,0,0,0,7.085,7.085h75.57a7.121,7.121,0,0,0,7.085-7.085V39.062a7.121,7.121,0,0,0-7.085-7.085Zm.978,4.723h73.614L82.539,58.369a2.361,2.361,0,0,0-.544.544l-7.915,7.915a9.407,9.407,0,0,1-13.357,0l-7.906-7.906a2.361,2.361,0,0,0-.544-.544ZM27.254,40.04,47.53,60.316,27.254,80.592Zm80.293,0V80.592L87.271,60.316ZM50.87,63.655l6.513,6.513a14.2,14.2,0,0,0,20.036,0l6.513-6.513,20.276,20.276H30.594Zm-30.7,41.53a2.362,2.362,0,0,0-2.362,2.362v4.723a2.362,2.362,0,1,0,4.723,0v-4.723A2.362,2.362,0,0,0,20.169,105.185Zm11.808,0a2.362,2.362,0,0,0-2.362,2.362v4.723a2.362,2.362,0,1,0,4.723,0v-4.723A2.362,2.362,0,0,0,31.977,105.185Zm11.808,0a2.362,2.362,0,0,0-2.362,2.362v4.723a2.362,2.362,0,1,0,4.723,0v-4.723A2.362,2.362,0,0,0,43.785,105.185Zm11.808,0a2.362,2.362,0,0,0-2.362,2.362v4.723a2.362,2.362,0,1,0,4.723,0v-4.723A2.362,2.362,0,0,0,55.593,105.185Zm11.808,0a2.362,2.362,0,0,0-2.362,2.362v4.723a2.362,2.362,0,1,0,4.723,0v-4.723A2.362,2.362,0,0,0,67.4,105.185Zm11.808,0a2.362,2.362,0,0,0-2.362,2.362v4.723a2.362,2.362,0,1,0,4.723,0v-4.723A2.362,2.362,0,0,0,79.208,105.185Zm11.808,0a2.362,2.362,0,0,0-2.362,2.362v4.723a2.362,2.362,0,1,0,4.723,0v-4.723A2.362,2.362,0,0,0,91.016,105.185Zm11.808,0a2.362,2.362,0,0,0-2.362,2.362v4.723a2.362,2.362,0,0,0,4.723,0v-4.723A2.362,2.362,0,0,0,102.824,105.185Zm11.808,0a2.362,2.362,0,0,0-2.362,2.362v4.723a2.362,2.362,0,1,0,4.723,0v-4.723A2.362,2.362,0,0,0,114.632,105.185Z" transform="translate(-6 -6)" fill="#fff" opacity="0.5"/>
</svg>
