<svg xmlns="http://www.w3.org/2000/svg" width="28.56" height="38.494" viewBox="0 0 28.56 38.494">
  <g id="doc2" transform="translate(-16)">
    <path id="Path_545" data-name="Path 545" d="M42.578,2.535H37.666V1.865A1.867,1.867,0,0,0,35.8,0H24.673a1.867,1.867,0,0,0-1.864,1.865v.671H17.982A1.984,1.984,0,0,0,16,4.518V36.512a1.984,1.984,0,0,0,1.982,1.982h24.6a1.984,1.984,0,0,0,1.982-1.982V4.518a1.984,1.984,0,0,0-1.982-1.982ZM24.05,1.865a.624.624,0,0,1,.623-.623H35.8a.624.624,0,0,1,.623.623V4.341a.624.624,0,0,1-.623.623H24.673a.624.624,0,0,1-.623-.623ZM43.319,36.512a.741.741,0,0,1-.74.74h-24.6a.741.741,0,0,1-.74-.74V4.518a.741.741,0,0,1,.74-.74h4.826v.563a1.867,1.867,0,0,0,1.864,1.865H35.8a1.867,1.867,0,0,0,1.865-1.865V3.777h4.912a.741.741,0,0,1,.74.74Z" transform="translate(0)" fill="#0074af"/>
    <path id="Path_546" data-name="Path 546" d="M49.646,29.457H31.673a.621.621,0,1,1,0-1.242H49.646a.621.621,0,1,1,0,1.242Z" transform="translate(-10.379 -19.456)" fill="#0074af"/>
    <path id="Path_547" data-name="Path 547" d="M49.646,43.457H31.673a.621.621,0,1,1,0-1.242H49.646a.621.621,0,1,1,0,1.242Z" transform="translate(-10.379 -29.11)" fill="#0074af"/>
    <path id="Path_548" data-name="Path 548" d="M50.613,67.187h0a1.743,1.743,0,0,0-1.208-.522,1.271,1.271,0,0,0-.181.01V64.916a2.667,2.667,0,0,0-5.334,0v3.368c0,1.038-1.07,1.511-2.065,1.511a2.053,2.053,0,0,1-2.065-1.87V65.8c1.866-.359,3.56-2.453,5.043-6.256.479-1.228,1.136-2.911.24-4.4a3.75,3.75,0,0,0-2.136-1.578,1.707,1.707,0,1,0-.132,1.272,2.428,2.428,0,0,1,1.205.947c.537.892.184,1.978-.333,3.3-1.818,4.659-3.482,5.58-4.557,5.524-1.774-.084-2.983-2.872-4.051-5.332-.475-1.094-.952-2.555-.531-3.3a2.226,2.226,0,0,1,1.146-.915,1.7,1.7,0,1,0-.341-1.2,3.5,3.5,0,0,0-1.885,1.505c-.548.968-.393,2.408.473,4.4,1.128,2.6,2.4,5.518,4.618,6.008v2.134a3.257,3.257,0,0,0,3.307,3.112c1.643,0,3.307-.946,3.307-2.753V64.916a1.425,1.425,0,0,1,2.85,0v1.755a1.194,1.194,0,0,0-.173-.007,1.76,1.76,0,0,0-1.2.52,1.9,1.9,0,0,0-.424,1.615,4.02,4.02,0,0,0,1.969,2.371.7.7,0,0,0,.738.108c.344-.178,2.066-1.142,2.147-2.653a1.825,1.825,0,0,0-.427-1.436h0ZM41.266,54.509a.466.466,0,1,1,.466-.466A.466.466,0,0,1,41.266,54.509Zm-4.256-.931a.466.466,0,1,1-.466.466A.466.466,0,0,1,37.01,53.578ZM49.8,68.539c-.031.58-.671,1.134-1.173,1.457-.735-.5-1.144-.967-1.218-1.407-.05-.287.051-.726.434-.684.278.03.422.354.724.374.353.024.481-.32.787-.368.38-.06.469.34.446.629C49.77,69.119,49.816,68.358,49.8,68.539Z" transform="translate(-11.796 -36.089)" fill="#0074af"/>
  </g>
</svg>
