<svg xmlns="http://www.w3.org/2000/svg" xmlns:xlink="http://www.w3.org/1999/xlink" width="110.844" height="110.844" viewBox="0 0 110.844 110.844">
  <defs>
    <linearGradient id="linear-gradient" x1="0.439" y1="0.665" x2="0.316" y2="0.924" gradientUnits="objectBoundingBox">
      <stop offset="0" stop-color="#fff"/>
      <stop offset="1" stop-color="#d0e0fc"/>
    </linearGradient>
    <filter id="Ellipse_98" x="0" y="0" width="110.844" height="110.844" filterUnits="userSpaceOnUse">
      <feOffset dy="4" input="SourceAlpha"/>
      <feGaussianBlur stdDeviation="4.5" result="blur"/>
      <feFlood flood-opacity="0.322"/>
      <feComposite operator="in" in2="blur"/>
      <feComposite in="SourceGraphic"/>
    </filter>
  </defs>
  <g id="Group_51869" data-name="Group 51869" transform="translate(-158.578 -435.578)">
    <g transform="matrix(1, 0, 0, 1, 158.58, 435.58)" filter="url(#Ellipse_98)">
      <circle id="Ellipse_98-2" data-name="Ellipse 98" cx="41.922" cy="41.922" r="41.922" transform="translate(13.5 9.5)" fill="url(#linear-gradient)"/>
    </g>
    <g id="Group_669" data-name="Group 669" transform="translate(192.814 460.993)">
      <g id="doctor4" transform="translate(0 9.51)">
        <g id="Group_643" data-name="Group 643" transform="translate(0 0)">
          <g id="Group_642" data-name="Group 642" transform="translate(0 0)">
            <path id="Path_539" data-name="Path 539" d="M44.59,35.325a5.209,5.209,0,0,0-4.411-4.411V29.561a6.567,6.567,0,0,0-6.325-6.771,6.593,6.593,0,0,0-6.325,6.569h.043l-.043.007V44.029c0,4.688-3.5,8.494-7.813,8.494S11.9,48.712,11.9,44.029v-1.27c1.079,0,2.232-.782,2.232-2.976V37.912a10.552,10.552,0,0,0,8.185-9.97V26.39H20.834L20.8,16.706a3.724,3.724,0,0,0-3.061-3.642,2.22,2.22,0,1,0-.051,1.517,2.232,2.232,0,0,1,1.621,2.13l.033,9.679H17.857v1.573a5.917,5.917,0,0,1-4.283,5.551,6.766,6.766,0,0,1-4.092,0,5.914,5.914,0,0,1-4.274-5.551V26.39H2.976V16.717a2.232,2.232,0,0,1,1.652-2.146,2.243,2.243,0,1,0-.046-1.511,3.72,3.72,0,0,0-3.094,3.657V26.39H0v1.548a10.551,10.551,0,0,0,8.185,9.974v1.871c0,2.194,1.153,2.976,2.232,2.976v1.27c0,5.506,4.172,9.982,9.3,9.982s9.3-4.481,9.3-9.982V29.4a5.092,5.092,0,0,1,4.836-5.121,5.08,5.08,0,0,1,4.836,5.283v1.35a5.208,5.208,0,1,0,5.9,4.411ZM15.625,14.485a.744.744,0,1,1,.744-.744A.744.744,0,0,1,15.625,14.485ZM6.7,13a.744.744,0,1,1-.744.744A.744.744,0,0,1,6.7,13ZM1.488,27.938v-.06H3.72v.085A7.393,7.393,0,0,0,9.031,34.93a8.28,8.28,0,0,0,5,0,7.394,7.394,0,0,0,5.316-6.967v-.085h1.488v.06A9.121,9.121,0,0,1,13.244,36.6a10.614,10.614,0,0,1-3.139.154A9.72,9.72,0,0,1,9.078,36.6,9.119,9.119,0,0,1,1.488,27.938Zm8.929,13.334c-.67,0-.744-1.042-.744-1.488V38.2c.06.007.121.01.181.016s.149.014.223.021c.352.031.707.052,1.065.053h.037c.357,0,.711-.022,1.061-.053.074-.007.153-.013.23-.021.059-.007.12-.009.179-.016v1.579c0,.446-.074,1.488-.744,1.488Zm29.018-1.488a3.72,3.72,0,1,1,3.72-3.72A3.72,3.72,0,0,1,39.435,39.783Z" transform="translate(0 -11.508)" fill="#0074af"/>
          </g>
        </g>
        <g id="Group_645" data-name="Group 645" transform="translate(37.203 22.322)">
          <g id="Group_644" data-name="Group 644" transform="translate(0 0)">
            <path id="Path_540" data-name="Path 540" d="M402.232,251.515a2.232,2.232,0,1,0,2.232,2.232A2.232,2.232,0,0,0,402.232,251.515Zm0,2.976a.744.744,0,1,1,.744-.744A.744.744,0,0,1,402.232,254.491Z" transform="translate(-400 -251.515)" fill="#0074af"/>
          </g>
        </g>
      </g>
      <g id="Icon_ionic-ios-videocam" data-name="Icon ionic-ios-videocam" transform="translate(25.326 0)">
        <path id="Path_514_-_Outline" data-name="Path 514 - Outline" d="M28.107,10.208a.691.691,0,0,0-.376.109l-3.5,2.207a.346.346,0,0,0-.162.291v3.072a.346.346,0,0,0,.162.291l3.5,2.207a.727.727,0,0,0,.376.109h.841a.344.344,0,0,0,.348-.344v-7.6a.347.347,0,0,0-.348-.344h-.841m0-1.408h.841A1.755,1.755,0,0,1,30.7,10.551v7.6A1.755,1.755,0,0,1,28.948,19.9h-.841A2.134,2.134,0,0,1,27,19.588l-.021-.013-3.5-2.212a1.747,1.747,0,0,1-.811-1.477V12.815a1.747,1.747,0,0,1,.811-1.477l.007,0,3.492-2.2A2.1,2.1,0,0,1,28.107,8.8Z" transform="translate(-9.075 -7.765)" fill="#de0000"/>
        <path id="Path_515_-_Outline" data-name="Path 515 - Outline" d="M11.42,18.756a2.08,2.08,0,0,0,2.074-2.082V10.485a2.085,2.085,0,0,0-2.078-2.078H3.735a2.085,2.085,0,0,0-2.078,2.078v6.193A2.088,2.088,0,0,0,3.74,18.756h7.68m0,1.408H3.74A3.491,3.491,0,0,1,.25,16.678V10.485A3.489,3.489,0,0,1,3.735,7h7.68A3.489,3.489,0,0,1,14.9,10.485v6.186a3.487,3.487,0,0,1-3.481,3.492Z" transform="translate(-0.25 -7)" fill="#de0000"/>
      </g>
    </g>
  </g>
</svg>
