<svg xmlns="http://www.w3.org/2000/svg" xmlns:xlink="http://www.w3.org/1999/xlink" width="91" height="91" viewBox="0 0 91 91">
  <defs>
    <linearGradient id="linear-gradient" x1="0.439" y1="0.665" x2="0.316" y2="0.924" gradientUnits="objectBoundingBox">
      <stop offset="0" stop-color="#fff"/>
      <stop offset="1" stop-color="#d0e0fc"/>
    </linearGradient>
    <filter id="Ellipse_118" x="0" y="0" width="91" height="91" filterUnits="userSpaceOnUse">
      <feOffset dy="4" input="SourceAlpha"/>
      <feGaussianBlur stdDeviation="4.5" result="blur"/>
      <feFlood flood-opacity="0.322"/>
      <feComposite operator="in" in2="blur"/>
      <feComposite in="SourceGraphic"/>
    </filter>
  </defs>
  <g id="Group_51868" data-name="Group 51868" transform="translate(-38.5 -582.5)">
    <g transform="matrix(1, 0, 0, 1, 38.5, 582.5)" filter="url(#Ellipse_118)">
      <circle id="Ellipse_118-2" data-name="Ellipse 118" cx="32" cy="32" r="32" transform="translate(13.5 9.5)" fill="url(#linear-gradient)"/>
    </g>
    <g id="pharma" transform="translate(67.69 608.873)">
      <g id="Group_649" data-name="Group 649" transform="translate(0)">
        <g id="Group_648" data-name="Group 648">
          <path id="Path_565" data-name="Path 565" d="M32.375,3.617a.637.637,0,0,0-.548-.114L28.8,4.273a6.057,6.057,0,0,1-1.49.186H22.858a2.883,2.883,0,0,0-2.866,2.462A1.616,1.616,0,0,1,18.385,8.3h-.163V6.971a3.748,3.748,0,1,0-3.823,0V8.3h-.163a1.616,1.616,0,0,1-1.606-1.38A2.883,2.883,0,0,0,9.765,4.46H5.316a6.053,6.053,0,0,1-1.49-.186L.8,3.5A.637.637,0,0,0,0,4.12,5.13,5.13,0,0,0,1.367,7.609,4.931,4.931,0,0,0,3.25,11.425l.6.8a7.31,7.31,0,0,0,5.826,2.917A7.227,7.227,0,0,0,14.4,13.4v2.272h-.571a4.121,4.121,0,0,0-3.611,6.106.637.637,0,0,0,1.116-.615,2.847,2.847,0,0,1,2.495-4.217H14.4v5.692H12.9a3.048,3.048,0,0,0,0,6.1h1.771a16.478,16.478,0,0,0,1.06,3.5.637.637,0,0,0,.586.386h0a.637.637,0,0,0,.585-.388l.013-.03a16.479,16.479,0,0,0,1.037-3.468h.724a1.306,1.306,0,1,1,0,2.612h-.043a.637.637,0,1,0,0,1.274h.043a2.58,2.58,0,0,0,0-5.161h-.543a16.636,16.636,0,0,0,.086-1.69V23.913h.425a4.12,4.12,0,0,0,0-8.24h-.425V13.4a7.226,7.226,0,0,0,4.725,1.742,7.31,7.31,0,0,0,5.826-2.917l.6-.8a4.931,4.931,0,0,0,1.883-3.817A5.129,5.129,0,0,0,32.621,4.12.637.637,0,0,0,32.375,3.617ZM13.9,12.135a5.965,5.965,0,0,1-4.22,1.735,6.031,6.031,0,0,1-3.857-1.406c.16.016.322.024.486.024H7.371a.637.637,0,0,0,0-1.274H6.3a3.67,3.67,0,0,1-3.473-2.5A5.116,5.116,0,0,0,5.15,9.27H6.468A.637.637,0,0,0,6.468,8H5.15A3.882,3.882,0,0,1,1.368,4.963l2.145.545a7.324,7.324,0,0,0,1.8.226H9.765a1.616,1.616,0,0,1,1.606,1.38,2.883,2.883,0,0,0,2.866,2.462H14.4v2.06ZM12.9,27.46a1.773,1.773,0,0,1,0-3.547h1.5v1.818a16.645,16.645,0,0,0,.09,1.728H12.9Zm4.046-1.69a15.165,15.165,0,0,1-.631,4.346,15.159,15.159,0,0,1-.643-4.384V23.913h1.274v1.856Zm0-3.13H15.674V7.441a3.7,3.7,0,0,0,1.274,0Zm1.7-5.692a2.846,2.846,0,0,1,0,5.692h-.425V16.947h.425ZM16.311,6.222a2.474,2.474,0,1,1,2.474-2.474A2.477,2.477,0,0,1,16.311,6.222ZM27.472,8H26.155a.637.637,0,1,0,0,1.274h1.318a5.116,5.116,0,0,0,2.318-.554,3.67,3.67,0,0,1-3.473,2.5H25.251a.637.637,0,0,0,0,1.274h1.067c.164,0,.326-.008.486-.024a6.031,6.031,0,0,1-3.857,1.406,5.966,5.966,0,0,1-4.22-1.735l-.5-.5V9.576h.163a2.883,2.883,0,0,0,2.866-2.462,1.616,1.616,0,0,1,1.606-1.38h4.448a7.325,7.325,0,0,0,1.8-.226l2.145-.545A3.882,3.882,0,0,1,27.472,8Z" transform="translate(-0.001)" fill="#0074af"/>
        </g>
      </g>
      <g id="Group_651" data-name="Group 651" transform="translate(13.125 31.346)">
        <g id="Group_650" data-name="Group 650">
          <path id="Path_566" data-name="Path 566" d="M207.089,492.188a.637.637,0,1,0,.187.45A.641.641,0,0,0,207.089,492.188Z" transform="translate(-206.001 -492.001)" fill="#0074af"/>
        </g>
      </g>
    </g>
  </g>
</svg>
