<svg xmlns="http://www.w3.org/2000/svg" xmlns:xlink="http://www.w3.org/1999/xlink" width="121" height="121" viewBox="0 0 121 121">
  <defs>
    <linearGradient id="linear-gradient" x1="0.439" y1="0.665" x2="0.316" y2="0.924" gradientUnits="objectBoundingBox">
      <stop offset="0" stop-color="#fff"/>
      <stop offset="1" stop-color="#d0e0fc"/>
    </linearGradient>
    <filter id="Ellipse_107" x="0" y="0" width="121" height="121" filterUnits="userSpaceOnUse">
      <feOffset dy="4" input="SourceAlpha"/>
      <feGaussianBlur stdDeviation="4.5" result="blur"/>
      <feFlood flood-opacity="0.322"/>
      <feComposite operator="in" in2="blur"/>
      <feComposite in="SourceGraphic"/>
    </filter>
  </defs>
  <g id="Group_51873" data-name="Group 51873" transform="translate(-13.5 -406.5)">
    <g transform="matrix(1, 0, 0, 1, 13.5, 406.5)" filter="url(#Ellipse_107)">
      <circle id="Ellipse_107-2" data-name="Ellipse 107" cx="47" cy="47" r="47" transform="translate(13.5 9.5)" fill="url(#linear-gradient)"/>
    </g>
    <g id="care" transform="translate(43 422.21)">
      <path id="Path_541" data-name="Path 541" d="M51.331,52.331c-.454,0-.835-.367-1.2-.6-2.151-1.389-8.693-5.617-9.675-11.565-.26-1.629-.383-4.667,1.688-6.9a7.143,7.143,0,0,1,4.933-2.14,6.948,6.948,0,0,1,4.254,1.769,7.017,7.017,0,0,1,4.211-1.769h.045a6.981,6.981,0,0,1,4.928,2.145,7.958,7.958,0,0,1,1.709,6.094c-.394,7.372-9.4,12.312-10.427,12.851a1.016,1.016,0,0,1-.471.116ZM47.147,33.148H47.1a5.1,5.1,0,0,0-3.471,1.494c-1.543,1.662-1.336,4.181-1.175,5.187.836,5.072,6.814,8.934,8.777,10.2l.157.1c2.045-1.168,8.522-5.294,8.82-10.886a6.069,6.069,0,0,0-1.182-4.61h0a4.953,4.953,0,0,0-3.477-1.488,5.762,5.762,0,0,0-3.528,1.829,1.012,1.012,0,0,1-1.384,0A5.608,5.608,0,0,0,47.147,33.148Z" transform="translate(-19.928 -5.976)" fill="#0074af"/>
      <path id="Path_542" data-name="Path 542" d="M61.621,45.408H58.363V42.065a1.011,1.011,0,1,0-2.023,0v3.342H53.081a1.011,1.011,0,0,0,0,2.023H56.34v3.342a1.011,1.011,0,1,0,2.023,0V47.431h3.258a1.011,1.011,0,0,0,0-2.023Z" transform="translate(-25.737 -10.884)" fill="#0074af"/>
      <path id="Path_543" data-name="Path 543" d="M102.872,48.191a12.931,12.931,0,0,0,.383-13.581,1.074,1.074,0,0,0-.079-.117L91.787,19.878a2.226,2.226,0,0,0-3.732.385,8.858,8.858,0,0,0,.313,8.546L93.191,36.9a3.638,3.638,0,0,0-1.764,1.441l-2.639,4.115a12.94,12.94,0,0,0-2.055,7v4.051a1.063,1.063,0,0,0-1.215,1.011V61.5a1.012,1.012,0,0,0,1.011,1.011h13.686a1.012,1.012,0,0,0,1.011-1.011V54.519c0-.868-.793-1.011-1.473-1.011a5.058,5.058,0,0,1,.666-1.561ZM99.2,60.486H87.54V55.53H99.2v4.956ZM88.756,53.507V49.457a10.922,10.922,0,0,1,1.736-5.91l2.639-4.115a1.625,1.625,0,0,1,2.813,1.61L93.187,46.2a1.011,1.011,0,1,0,1.784.953L97.727,42a3.614,3.614,0,0,0-1.357-4.823,3.693,3.693,0,0,0-.887-.379L90.1,27.773a6.846,6.846,0,0,1-.242-6.6.186.186,0,0,1,.328-.048l11.345,14.557a10.916,10.916,0,0,1-.358,11.406L98.726,50.84a7.069,7.069,0,0,0-1.049,2.667H88.756Z" transform="translate(-42.269 0)" fill="#0074af"/>
      <path id="Path_544" data-name="Path 544" d="M18.467,53.507h-.2V49.456a12.94,12.94,0,0,0-2.055-7l-2.639-4.115A3.643,3.643,0,0,0,11.8,36.9l4.824-8.091a8.858,8.858,0,0,0,.313-8.546,2.226,2.226,0,0,0-3.732-.385L1.82,34.492a1,1,0,0,0-.079.117A12.931,12.931,0,0,0,2.124,48.19l2.452,3.756a5.034,5.034,0,0,1,.666,1.561c-.681,0-1.473.142-1.473,1.011V61.5A1.012,1.012,0,0,0,4.78,62.509H18.467A1.012,1.012,0,0,0,19.478,61.5V54.519A1.011,1.011,0,0,0,18.467,53.507ZM6.27,50.84,3.818,47.084A10.916,10.916,0,0,1,3.46,35.679L14.805,21.121a.186.186,0,0,1,.328.048,6.845,6.845,0,0,1-.242,6.6l-5.379,9.02a3.71,3.71,0,0,0-.887.379A3.615,3.615,0,0,0,7.269,42l2.756,5.156a1.011,1.011,0,0,0,1.784-.953L9.053,41.042a1.625,1.625,0,0,1,2.813-1.61L14.5,43.546a10.92,10.92,0,0,1,1.736,5.91v4.051H7.32A7.078,7.078,0,0,0,6.27,50.84Zm11.185,9.645H5.792V55.53H17.455Z" transform="translate(0)" fill="#0074af"/>
    </g>
  </g>
</svg>
