<svg xmlns="http://www.w3.org/2000/svg" xmlns:xlink="http://www.w3.org/1999/xlink" width="77" height="77" viewBox="0 0 77 77">
  <defs>
    <linearGradient id="linear-gradient" x1="0.439" y1="0.665" x2="0.316" y2="0.924" gradientUnits="objectBoundingBox">
      <stop offset="0" stop-color="#fff"/>
      <stop offset="1" stop-color="#d0e0fc"/>
    </linearGradient>
    <filter id="Ellipse_104" x="0" y="0" width="77" height="77" filterUnits="userSpaceOnUse">
      <feOffset dy="4" input="SourceAlpha"/>
      <feGaussianBlur stdDeviation="4.5" result="blur"/>
      <feFlood flood-opacity="0.322"/>
      <feComposite operator="in" in2="blur"/>
      <feComposite in="SourceGraphic"/>
    </filter>
  </defs>
  <g id="Group_51871" data-name="Group 51871" transform="translate(-259.5 -618.5)">
    <g transform="matrix(1, 0, 0, 1, 259.5, 618.5)" filter="url(#Ellipse_104)">
      <circle id="Ellipse_104-2" data-name="Ellipse 104" cx="25" cy="25" r="25" transform="translate(13.5 9.5)" fill="url(#linear-gradient)"/>
    </g>
    <g id="sosmedcin" transform="translate(283.487 639.66)">
      <g id="Group_647" data-name="Group 647" transform="translate(0 0)">
        <g id="Group_646" data-name="Group 646" transform="translate(0 0)">
          <path id="Path_561" data-name="Path 561" d="M105.6,36.172a2.6,2.6,0,0,0-1.854.768,1.489,1.489,0,0,1-2.1,0,2.624,2.624,0,0,0-3.707,0,1.487,1.487,0,0,1-2.1,0,2.624,2.624,0,0,0-3.707,0,1.487,1.487,0,0,1-2.1,0,2.622,2.622,0,0,0-2.034-.762.341.341,0,0,1-.284-.118.35.35,0,0,1-.08-.3l.242-1.166a8.3,8.3,0,0,0,2.23.464q.28.019.559.019a8.3,8.3,0,0,0,5.024-1.695c1.382-1.052,2.732-2.182,4.01-3.358a.567.567,0,1,0-.767-.835c-1.253,1.152-2.575,2.259-3.93,3.29a7.162,7.162,0,0,1-7.942.49l4.8-4.8a2.583,2.583,0,0,0,3.06-.2l.868-.725a35.532,35.532,0,0,0,4.468-4.468l.725-.868a2.583,2.583,0,0,0,.2-3.06l4.8-4.8a7.162,7.162,0,0,1-.49,7.942c-.95,1.248-1.965,2.469-3.017,3.631a.567.567,0,1,0,.84.761c1.074-1.185,2.11-2.432,3.079-3.705a8.3,8.3,0,0,0-.735-10.892l-.392-.392a2.352,2.352,0,0,0-3.322,0l-3.209,3.209a2.349,2.349,0,0,0,0,3.322l1.284,1.284a1.458,1.458,0,0,1,.088,1.976l-.725.868a34.4,34.4,0,0,1-4.325,4.325l-.868.725A1.458,1.458,0,0,1,92.215,27L91.108,25.9a2.6,2.6,0,0,0-3.677,0l-2.855,2.855a2.6,2.6,0,0,0,0,3.677l.215.215a8.3,8.3,0,0,0,2.016,1.482l-.291,1.4a1.484,1.484,0,0,0,1.552,1.784,1.486,1.486,0,0,1,1.155.432,2.621,2.621,0,0,0,3.707,0,1.489,1.489,0,0,1,2.1,0,2.621,2.621,0,0,0,3.707,0,1.489,1.489,0,0,1,2.1,0,2.625,2.625,0,0,0,3.707,0,1.487,1.487,0,0,1,2.1,0,.567.567,0,1,0,.8-.8A2.6,2.6,0,0,0,105.6,36.172ZM99.538,15.394l3.209-3.209a1.217,1.217,0,0,1,1.719,0l.392.392q.247.247.467.515l-4.9,4.9-.884-.884A1.217,1.217,0,0,1,99.538,15.394ZM85.378,31.627a1.466,1.466,0,0,1,0-2.073L88.233,26.7a1.468,1.468,0,0,1,2.073,0l.706.706-4.9,4.9q-.268-.22-.515-.467Z" transform="translate(-79.063 -10.696)" fill="#0074af"/>
          <path id="Path_562" data-name="Path 562" d="M2.936,95.037c-.622-.23-1.2-.48-1.368-.553a.4.4,0,0,1-.149-.382.555.555,0,0,1,.437-.446,1.719,1.719,0,0,1,1.425.328.567.567,0,0,0,.727-.87,2.847,2.847,0,0,0-2.479-.543A1.7,1.7,0,0,0,.3,93.941a1.53,1.53,0,0,0,.682,1.514.567.567,0,0,0,.079.043c.029.013.714.318,1.486.6.232.086.764.329.69.742a.9.9,0,0,1-.927.614A1.794,1.794,0,0,1,.988,96.9a.567.567,0,0,0-.84.761,2.944,2.944,0,0,0,2.159.926A2,2,0,0,0,4.35,97.042a1.825,1.825,0,0,0-1.414-2.005Z" transform="translate(-0.001 -87.832)" fill="#0074af"/>
          <path id="Path_563" data-name="Path 563" d="M227.451,98.592a2,2,0,0,0,2.044-1.549,1.825,1.825,0,0,0-1.414-2.005c-.622-.23-1.2-.48-1.368-.553a.4.4,0,0,1-.149-.382.555.555,0,0,1,.437-.446,1.72,1.72,0,0,1,1.425.328.567.567,0,0,0,.727-.87,2.847,2.847,0,0,0-2.479-.543,1.7,1.7,0,0,0-1.232,1.37,1.529,1.529,0,0,0,.682,1.514.564.564,0,0,0,.079.043c.029.013.714.318,1.486.6.232.086.764.329.69.742a.9.9,0,0,1-.927.614,1.794,1.794,0,0,1-1.318-.553.567.567,0,0,0-.84.761A2.945,2.945,0,0,0,227.451,98.592Z" transform="translate(-212.382 -87.833)" fill="#0074af"/>
          <path id="Path_564" data-name="Path 564" d="M100.206,98.593a3.061,3.061,0,1,0-3.061-3.061A3.065,3.065,0,0,0,100.206,98.593Zm0-4.989a1.928,1.928,0,1,1-1.928,1.928A1.93,1.93,0,0,1,100.206,93.6Z" transform="translate(-91.638 -87.834)" fill="#0074af"/>
          <circle id="Ellipse_126" data-name="Ellipse 126" cx="0.567" cy="0.567" r="0.567" transform="translate(21.515 16.585)" fill="#0074af"/>
        </g>
      </g>
    </g>
  </g>
</svg>
