<svg xmlns="http://www.w3.org/2000/svg" width="20.505" height="20.523" viewBox="0 0 20.505 20.523">
  <path id="icons8_alarm_1" d="M11.256,1A1.476,1.476,0,0,0,9.79,2.466V4.138A5.869,5.869,0,0,0,5.393,9.8v5.841a2.2,2.2,0,0,1-.218.784,1.159,1.159,0,0,1-1.248.7v1.466H18.586V17.125c-.87,0-1.094-.321-1.277-.687a2.035,2.035,0,0,1-.189-.773V9.8a5.869,5.869,0,0,0-4.4-5.658V2.466A1.476,1.476,0,0,0,11.256,1Zm0,17.591a1.466,1.466,0,1,0,1.466,1.466A1.469,1.469,0,0,0,11.256,18.591Zm0-13.193a4.384,4.384,0,0,1,4.4,4.4v5.858A3.372,3.372,0,0,0,16,17.08c.006.017.017.029.023.046H6.458a.125.125,0,0,1,.023-.029,3.6,3.6,0,0,0,.378-1.414V9.8A4.384,4.384,0,0,1,11.256,5.4Zm-8.8,1.454a.748.748,0,0,0-.664.47,10.27,10.27,0,0,0,.017,7.891.734.734,0,0,0,1.351-.573,8.83,8.83,0,0,1-.011-6.769.737.737,0,0,0-.693-1.019Zm17.6,0a.735.735,0,0,0-.607.332.719.719,0,0,0-.063.687,8.83,8.83,0,0,1-.011,6.769.734.734,0,0,0,1.351.573,10.3,10.3,0,0,0,.017-7.891A.738.738,0,0,0,20.052,6.852Z" transform="translate(-1.011 -1)" fill="#0072ac"/>
</svg>
