<svg xmlns="http://www.w3.org/2000/svg" width="30.955" height="26.983" viewBox="0 0 30.955 26.983">
  <g id="Group_54" data-name="Group 54" transform="translate(-1.483 -9.25)">
    <g id="Group_53" data-name="Group 53" transform="translate(1.483 9.25)">
      <g id="Group_52" data-name="Group 52">
        <path id="Path_82" data-name="Path 82" d="M30.732,23.756A3.687,3.687,0,0,0,28.4,17.831a4.48,4.48,0,0,0-7.132-4.776,5.4,5.4,0,0,0-9.742.582,2.873,2.873,0,0,0-4.482,3.1,5.1,5.1,0,1,0,1.826,10,4.463,4.463,0,0,0,4.427,3.91h4.3a10.4,10.4,0,0,1,3.284,2.526,8.8,8.8,0,0,1,1.051,3.037,2.638,2.638,0,0,0,1.676.512c1.1,0,1.384-.512,1.384-.512V32.18a5.1,5.1,0,0,0,5.744-8.424Z" transform="translate(-2.227 -9.994)" fill="#6dc9f7"/>
        <g id="Group_50" data-name="Group 50" transform="translate(0.256 7.223)">
          <path id="Path_83" data-name="Path 83" d="M3.25,41.843A5.448,5.448,0,0,1,5.37,37.492a5.1,5.1,0,0,0,2.213,9.689c.06,0,.118,0,.177-.006A5.278,5.278,0,0,1,3.25,41.843Z" transform="translate(-2.483 -37.492)" fill="#fff"/>
        </g>
        <g id="Group_51" data-name="Group 51">
          <path id="Path_84" data-name="Path 84" d="M30.345,22.957a3.943,3.943,0,0,0-2.372-6.07,4.736,4.736,0,0,0-7.378-4.957,5.652,5.652,0,0,0-9.928.579,3.1,3.1,0,0,0-1.606-.446A3.137,3.137,0,0,0,5.927,15.2a3.078,3.078,0,0,0,.056.58,5.355,5.355,0,0,0,.856,10.641A5.271,5.271,0,0,0,7.913,26.3a4.723,4.723,0,0,0,4.637,3.854h4.237a9.877,9.877,0,0,1,3.13,2.407A8.592,8.592,0,0,1,20.931,35.5a.256.256,0,0,0,.084.157,2.884,2.884,0,0,0,1.845.576c1.212,0,1.571-.576,1.607-.642a.255.255,0,0,0,.033-.125V31.892a5.354,5.354,0,0,0,5.846-8.935Zm-3.261,9.087a4.818,4.818,0,0,1-2.351-.608q-.177-.1-.347-.213s-.284-.2-.415-.312a4.868,4.868,0,0,1-.55-.542.256.256,0,0,0-.387.335,5.383,5.383,0,0,0,.953.862v.487a1.488,1.488,0,0,1-1.128.342,2.878,2.878,0,0,1-.909-.141.256.256,0,1,0-.161.485,3.386,3.386,0,0,0,1.071.167,2.455,2.455,0,0,0,1.128-.232v1.168a1.488,1.488,0,0,1-1.128.342,2.878,2.878,0,0,1-.909-.141.256.256,0,1,0-.161.485,3.386,3.386,0,0,0,1.071.167,2.46,2.46,0,0,0,1.128-.232v.913a1.49,1.49,0,0,1-1.128.342,2.566,2.566,0,0,1-1.439-.4,8.831,8.831,0,0,0-1.072-3.033,8.183,8.183,0,0,0-2.52-2.133h.659a2.712,2.712,0,0,0,0-5.425H16.7a.256.256,0,1,0,0,.512h1.793a2.2,2.2,0,0,1,0,4.4H12.55a4.21,4.21,0,0,1-4.173-3.686c0-.006,0-.01-.006-.016a4.285,4.285,0,0,1-.03-.507,4.214,4.214,0,0,1,4.209-4.209h5.136a1.833,1.833,0,1,0,0-3.667H16.68a.256.256,0,1,0,0,.512h1.006a1.322,1.322,0,1,1,0,2.644H12.55a4.726,4.726,0,0,0-4.72,4.72c0,.119.006.238.015.356a4.774,4.774,0,0,1-1.006.113A4.843,4.843,0,0,1,6.3,16.252a4.913,4.913,0,0,1,.542-.032,4.8,4.8,0,0,1,2.694.822,1.514,1.514,0,0,0,1.431,2.016.256.256,0,1,0,0-.512,1.006,1.006,0,1,1,0-2.012.256.256,0,1,0,0-.512,1.514,1.514,0,0,0-1.183.57,5.312,5.312,0,0,0-2.942-.885c-.113,0-.226,0-.339.011a2.588,2.588,0,0,1-.061-.523A2.624,2.624,0,0,1,9.06,12.575a2.594,2.594,0,0,1,1.536.5,2.643,2.643,0,0,1,.735.807.256.256,0,0,0,.221.128.252.252,0,0,0,.128-.035.255.255,0,0,0,.093-.349,3.151,3.151,0,0,0-.68-.813,5.134,5.134,0,0,1,8.925-.827,3.075,3.075,0,0,0-3.14,2.373.256.256,0,1,0,.5.116,2.565,2.565,0,0,1,5.007,1.117,2.044,2.044,0,0,0-1.158,2.293.256.256,0,0,0,.25.2.264.264,0,0,0,.054-.006.256.256,0,0,0,.2-.3,1.53,1.53,0,1,1,2.99-.648.256.256,0,0,0,.5-.108,2.037,2.037,0,0,0-2.286-1.586,3.082,3.082,0,0,0-1.858-3.208,4.223,4.223,0,0,1,6.339,4.783.256.256,0,0,0,.205.328,3.428,3.428,0,0,1,2.308,5.327,5.312,5.312,0,0,0-2.824-.82l-.006-.02a1.631,1.631,0,0,0-2.073-1.011.256.256,0,0,0,.167.484,1.119,1.119,0,1,1,.729,2.117.256.256,0,1,0,.166.484,1.627,1.627,0,0,0,1.1-1.538,4.842,4.842,0,0,1-.1,9.682Z" transform="translate(-1.483 -9.25)" fill="#3a2c60"/>
          <path id="Path_85" data-name="Path 85" d="M11.943,51.024a2.942,2.942,0,0,1-1.648-4.99.256.256,0,0,0-.362-.362,3.453,3.453,0,0,0,1.935,5.857l.037,0a.256.256,0,0,0,.037-.509Z" transform="translate(-7.019 -36.301)" fill="#3a2c60"/>
          <path id="Path_86" data-name="Path 86" d="M97.2,71.441a.255.255,0,0,0,0,.362,2.3,2.3,0,1,1-3.256,3.256.256.256,0,0,0-.362.362,2.813,2.813,0,0,0,3.979-3.979A.256.256,0,0,0,97.2,71.441Z" transform="translate(-69.971 -55.48)" fill="#3a2c60"/>
          <path id="Path_87" data-name="Path 87" d="M49.543,69.79H47.156a.256.256,0,0,0,0,.512h2.387a.256.256,0,0,0,0-.512Z" transform="translate(-35.284 -54.306)" fill="#3a2c60"/>
          <path id="Path_88" data-name="Path 88" d="M40.035,69.79H38.884a.256.256,0,1,0,0,.512h1.151a.256.256,0,0,0,0-.512Z" transform="translate(-29.128 -54.306)" fill="#3a2c60"/>
          <path id="Path_89" data-name="Path 89" d="M77.059,57.814a2.027,2.027,0,0,1-2.235-3.383A.256.256,0,0,0,74.543,54a2.539,2.539,0,0,0,.891,4.605,2.559,2.559,0,0,0,.514.052,2.522,2.522,0,0,0,1.394-.421.256.256,0,0,0-.282-.427Z" transform="translate(-55.008 -42.526)" fill="#3a2c60"/>
        </g>
      </g>
    </g>
  </g>
</svg>
