<svg id="Group_675" data-name="Group 675" xmlns="http://www.w3.org/2000/svg" width="33.225" height="30.373" viewBox="0 0 33.225 30.373">
  <g id="Group_48" data-name="Group 48" transform="translate(0 0)">
    <g id="Group_47" data-name="Group 47">
      <path id="Path_75" data-name="Path 75" d="M71.982,52.725a37.562,37.562,0,0,1,0-12.985c.314-1.688,3.035-5.15,6.312-1.491,5.672,6.334,8.436,17.477,5.751,19.6-3.463,2.744-11.4-1.493-12.064-5.127Z" transform="translate(-52.127 -28.642)" fill="#6dc9f7"/>
      <g id="Group_46" data-name="Group 46">
        <path id="Path_76" data-name="Path 76" d="M17.513,52.724a37.561,37.561,0,0,0,0-12.985c-.314-1.689-3.035-5.151-6.312-1.491-5.672,6.334-8.436,17.477-5.752,19.6C8.913,60.595,16.848,56.358,17.513,52.724Z" transform="translate(-4.132 -28.641)" fill="#6dc9f7"/>
        <path id="Path_77" data-name="Path 77" d="M6.3,57.851c-2.684-2.127.08-13.27,5.751-19.6a4.39,4.39,0,0,1,2.508-1.581c-.976-.163-2.128.207-3.359,1.581-5.671,6.334-8.435,17.477-5.751,19.6a4.755,4.755,0,0,0,3.31.863A4.331,4.331,0,0,1,6.3,57.851Z" transform="translate(-4.132 -28.641)" fill="#fff"/>
        <g id="Group_45" data-name="Group 45">
          <path id="Path_78" data-name="Path 78" d="M40.1,28.788a6.466,6.466,0,0,1-2.268.14,11.809,11.809,0,0,0-2.689-2.9,15.971,15.971,0,0,0-2.924-1.79,2.769,2.769,0,0,1-1.556-2.5V10.031a2.22,2.22,0,0,0-2.965,0V21.8a2.77,2.77,0,0,1-1.544,2.49,15.815,15.815,0,0,0-2.826,1.743,11.816,11.816,0,0,0-2.689,2.9,6.458,6.458,0,0,1-2.268-.14,16,16,0,0,1-2.184-1.036,5.17,5.17,0,0,0,1.876,1.723,5.8,5.8,0,0,0,2.324.545s-.966,5.5-.5,5.713c.219.1,1-4.926,3.193-7.451a10.323,10.323,0,0,1,6.159-3.118A10.322,10.322,0,0,1,35.4,28.281c2.2,2.525,2.973,7.551,3.193,7.451.462-.21-.5-5.713-.5-5.713a5.8,5.8,0,0,0,2.324-.545,5.175,5.175,0,0,0,1.876-1.723A15.95,15.95,0,0,1,40.1,28.788Z" transform="translate(-12.568 -9.18)" fill="#d4fbff"/>
          <g id="Group_44" data-name="Group 44">
            <path id="Path_79" data-name="Path 79" d="M36.371,34.584a.29.29,0,0,0-.3.27,3.5,3.5,0,0,1-.915,2.6c-1.3,1.029-3.444,1.092-5.887.172-2.928-1.1-5.388-3.306-5.721-5.128A35.8,35.8,0,0,1,23,25.572a8.888,8.888,0,0,1,2.645,1.764c0,1.026-.227,3.495-1.254,4.247a.284.284,0,0,0,.335.458,2.778,2.778,0,0,0,.84-1.128A3.275,3.275,0,0,0,26.6,32.519a.284.284,0,1,0,.318-.47,3.889,3.889,0,0,1-1.028-2.076,10.982,10.982,0,0,0,.3-2.031A14.006,14.006,0,0,1,28.3,32.3a3.332,3.332,0,0,1-1.211,1.952.284.284,0,0,0,.331.461,3.6,3.6,0,0,0,1.166-1.469c.088.3.167.588.235.837.262.948.31,1.108.488,1.192a.32.32,0,0,0,.252,0c.153-.07.467-.215.13-2.947a5.761,5.761,0,0,0,2.824.8,2.5,2.5,0,0,1,.1,1.292.284.284,0,0,0,.212.34.277.277,0,0,0,.064.007.284.284,0,0,0,.276-.22,2.969,2.969,0,0,0-.066-1.44,6.171,6.171,0,0,0,1.1-.194.284.284,0,0,0-.149-.547,5.251,5.251,0,0,1-3.587-.279l.374-.478a.284.284,0,1,0-.446-.35l-.44.561c-.165-.1-.292-.185-.367-.241-.081-.574-.185-1.237-.318-2.008a5.979,5.979,0,0,0,1.992-.5c.305.146,1.166.612,1.166,1.229a.284.284,0,1,0,.567,0,2.024,2.024,0,0,0-1.153-1.562c.829-.567,1.579-1.427,1.579-1.7a.3.3,0,0,0-.148-.255c-.165-.094-.278-.027-.612.173a7.729,7.729,0,0,1-1.787.845,6.04,6.04,0,0,1-2.023.145,10.262,10.262,0,0,0-.889-1.155,5.1,5.1,0,0,0,1.16-1.223l1.474.124h.024a.284.284,0,0,0,.024-.566l-1.214-.1a3.927,3.927,0,0,0,.391-1.707.284.284,0,1,0-.567,0,3.951,3.951,0,0,1-1.677,3.053,13.9,13.9,0,0,0-1.4-1.277c-.27-.214-.562-.424-.87-.629.614-.362,2.516-1.624,2.516-3.381a.284.284,0,0,0-.567,0,2.532,2.532,0,0,1-.668,1.587,3.582,3.582,0,0,1-1.211-1.477l.962-.655a.284.284,0,0,0-.319-.469l-.791.538a2.169,2.169,0,0,1,.034-.716.284.284,0,0,0-.554-.122,3.353,3.353,0,0,0,1.486,3.317,6.955,6.955,0,0,1-1.341.981.277.277,0,0,0-.074.06q-.733-.447-1.581-.858c-.033-.016-.063-.037-.1-.055a33.818,33.818,0,0,1,.45-3.6,3.94,3.94,0,0,1,2.47-2.788c1.1-.307,2.225.175,3.352,1.434A29.336,29.336,0,0,1,35.4,29.821a.284.284,0,0,0,.549-.145A29.926,29.926,0,0,0,29.8,17.882c-1.6-1.785-3.019-1.856-3.928-1.6a4.511,4.511,0,0,0-2.874,3.23c-.109.584-.3,1.753-.428,3.309a2.507,2.507,0,0,1-.764-1.792V9.315a.283.283,0,0,0-.062-.177,2.2,2.2,0,0,0-1.7-.674,2.195,2.195,0,0,0-1.7.674.283.283,0,0,0-.062.177V21.081a2.508,2.508,0,0,1-.76,1.788c-.13-1.581-.322-2.768-.432-3.359a4.511,4.511,0,0,0-2.874-3.23c-.91-.254-2.33-.183-3.928,1.6-4.535,5.064-7.189,13.05-6.823,17.331A3.694,3.694,0,0,0,4.557,37.9a4.829,4.829,0,0,0,3.052.94A9.737,9.737,0,0,0,11,38.155c2.7-1.016,5.657-3.252,6.079-5.557a36.446,36.446,0,0,0,.558-7.215,11.054,11.054,0,0,1,2.455-.65,11.082,11.082,0,0,1,2.346.61,36.464,36.464,0,0,0,.557,7.255c.422,2.305,3.378,4.54,6.079,5.557a9.732,9.732,0,0,0,3.387.681,4.829,4.829,0,0,0,3.052-.94,3.947,3.947,0,0,0,1.13-3.015.284.284,0,0,0-.27-.3ZM18.835,12.835a2,2,0,0,1,2.4,0v1.022a2.644,2.644,0,0,0-2.4,0Zm2.4-.68a2.644,2.644,0,0,0-2.4,0V11.134a2,2,0,0,1,2.4,0Zm-2.4,2.382a2,2,0,0,1,2.4,0v1.022a2.644,2.644,0,0,0-2.4,0Zm1.2-5.506a1.759,1.759,0,0,1,1.2.4v1.023a2.644,2.644,0,0,0-2.4,0V9.43A1.758,1.758,0,0,1,20.034,9.031ZM16.518,32.5c-.334,1.822-2.793,4.026-5.721,5.128-2.443.919-4.589.857-5.888-.172a3.232,3.232,0,0,1-.895-2.287C3.659,31,6.258,23.215,10.7,18.26A3.787,3.787,0,0,1,13.4,16.736a2.369,2.369,0,0,1,.645.09,3.94,3.94,0,0,1,2.47,2.788,33.882,33.882,0,0,1,.453,3.65c-.03.016-.058.037-.089.052q-.792.388-1.48.81a.279.279,0,0,0-.075-.061,6.928,6.928,0,0,1-1.342-.98,3.354,3.354,0,0,0,1.488-3.318.284.284,0,1,0-.554.122,2.2,2.2,0,0,1,.036.717l-.793-.54a.284.284,0,1,0-.319.469l.966.658a3.519,3.519,0,0,1-1.215,1.476,2.532,2.532,0,0,1-.667-1.588.284.284,0,1,0-.567,0c0,1.76,1.91,3.024,2.52,3.383-.308.205-.6.414-.874.627a13.933,13.933,0,0,0-1.4,1.277,3.952,3.952,0,0,1-1.677-3.053.284.284,0,0,0-.567,0,3.924,3.924,0,0,0,.391,1.707l-1.214.1a.284.284,0,0,0,.024.566h.024l1.474-.124a5.1,5.1,0,0,0,1.16,1.223,10.251,10.251,0,0,0-.889,1.155A6.038,6.038,0,0,1,9.3,27.8a7.714,7.714,0,0,1-1.787-.845c-.334-.2-.446-.267-.612-.173a.3.3,0,0,0-.148.255c0,.275.75,1.135,1.579,1.7A2.024,2.024,0,0,0,7.182,30.3a.284.284,0,1,0,.567,0c0-.57.76-1.041,1.164-1.229a5.975,5.975,0,0,0,1.993.5c-.133.772-.237,1.434-.318,2.009a4.3,4.3,0,0,1-.366.242l-.441-.563a.284.284,0,0,0-.446.35l.376.48a5.243,5.243,0,0,1-3.589.277.284.284,0,0,0-.149.547,6.12,6.12,0,0,0,1.1.194,2.973,2.973,0,0,0-.066,1.44.284.284,0,0,0,.276.22.281.281,0,0,0,.064-.007.284.284,0,0,0,.212-.34,2.507,2.507,0,0,1,.1-1.292,5.762,5.762,0,0,0,2.824-.8c-.336,2.732-.023,2.877.131,2.947a.3.3,0,0,0,.124.025.31.31,0,0,0,.128-.027c.178-.083.227-.243.488-1.192.068-.248.147-.532.235-.837a3.6,3.6,0,0,0,1.165,1.469.284.284,0,1,0,.331-.461A3.331,3.331,0,0,1,11.882,32.3a14,14,0,0,1,2.108-4.359,10.99,10.99,0,0,0,.3,2.031,3.886,3.886,0,0,1-1.028,2.076.284.284,0,1,0,.318.47,3.272,3.272,0,0,0,1.033-1.605,2.776,2.776,0,0,0,.839,1.127.284.284,0,1,0,.335-.458c-1.027-.752-1.25-3.221-1.254-4.247a8.816,8.816,0,0,1,2.536-1.712,35.859,35.859,0,0,1-.554,6.873Zm3.571-8.333-.036,0a10.677,10.677,0,0,0-6.338,3.214,16.579,16.579,0,0,0-2.772,6.08c.1-1.091.321-2.654.576-4.107a.284.284,0,0,0-.279-.333,5.527,5.527,0,0,1-2.194-.514,4.269,4.269,0,0,1-.7-.461,5.993,5.993,0,0,0,.8.3,6.694,6.694,0,0,0,2.384.149.284.284,0,0,0,.208-.137,11.673,11.673,0,0,1,2.62-2.82,15.409,15.409,0,0,1,2.775-1.71,3.074,3.074,0,0,0,1.7-2.744V16.239a2,2,0,0,1,2.4,0v4.788a3.07,3.07,0,0,0,1.716,2.751,15.51,15.51,0,0,1,2.871,1.757,11.665,11.665,0,0,1,2.62,2.82.285.285,0,0,0,.208.137,6.7,6.7,0,0,0,2.384-.149,5.974,5.974,0,0,0,.8-.3,4.252,4.252,0,0,1-.7.461,5.555,5.555,0,0,1-2.195.514.284.284,0,0,0-.279.332c.255,1.453.478,3.016.577,4.107a16.571,16.571,0,0,0-2.772-6.08,10.678,10.678,0,0,0-6.338-3.214l-.034,0Z" transform="translate(-3.416 -8.464)" fill="#3a2c60"/>
            <path id="Path_80" data-name="Path 80" d="M117.072,86.7a18.25,18.25,0,0,1,.4,2.782.284.284,0,0,0,.283.267h.017a.283.283,0,0,0,.266-.3,18.808,18.808,0,0,0-.415-2.87.284.284,0,0,0-.555.121Z" transform="translate(-84.827 -64.259)" fill="#3a2c60"/>
          </g>
        </g>
      </g>
    </g>
  </g>
</svg>
