<svg id="doc" xmlns="http://www.w3.org/2000/svg" width="27.014" height="34.598" viewBox="0 0 27.014 34.598">
  <path id="Path_517" data-name="Path 517" d="M87.281,340.912l-5.709-1.679H71.656l-5.709,1.679a3.25,3.25,0,0,0-2.333,3.118v6.37h26v-6.37A3.25,3.25,0,0,0,87.281,340.912Z" transform="translate(-63.107 -316.31)" fill="#edebed"/>
  <path id="Path_518" data-name="Path 518" d="M206.388,355.01h-5.417l-1.083-10.833h7.583Z" transform="translate(-190.173 -320.92)" fill="#a5cdff"/>
  <path id="Path_519" data-name="Path 519" d="M200.134,346.641a5.4,5.4,0,0,0,7.091,0l.246-2.464h-7.583Z" transform="translate(-190.173 -320.92)" fill="#8cb4eb"/>
  <path id="Path_520" data-name="Path 520" d="M203.68,271.6h0a3.792,3.792,0,0,1-3.792-3.792v-3.792h7.583v3.792A3.792,3.792,0,0,1,203.68,271.6Z" transform="translate(-190.173 -246.176)" fill="#f7d291"/>
  <path id="Path_521" data-name="Path 521" d="M199.888,266.849a7.98,7.98,0,0,0,7.583,0v-2.833h-7.583Z" transform="translate(-190.173 -246.176)" fill="#f0c382"/>
  <path id="Path_522" data-name="Path 522" d="M136.791,85.062h-.812V79.645H121.895v5.417h-.812a1.354,1.354,0,1,0,0,2.708h.84a7.035,7.035,0,0,0,14.029,0h.84a1.354,1.354,0,1,0,0-2.708Z" transform="translate(-115.429 -74.263)" fill="#ffe1a0"/>
  <path id="Path_523" data-name="Path 523" d="M121.993,79.645v5.417h-.758a1.385,1.385,0,0,0-1.352.986,1.359,1.359,0,0,0,1.305,1.722h.833a6.992,6.992,0,0,0,8.1,6.409,7.037,7.037,0,0,1-5.962-6.95v-3.4a1.622,1.622,0,0,1,1.835-1.6,13.719,13.719,0,0,0,1.625.093,21.356,21.356,0,0,0,5.35-.763,4.179,4.179,0,0,0,2.52-1.913Z" transform="translate(-115.527 -74.263)" fill="#f7d291"/>
  <path id="Path_524" data-name="Path 524" d="M139.483,47.529l.068,2.167a5.982,5.982,0,0,0-1.625,3.792v.669a1.083,1.083,0,0,1-.949,1.075l-1.218.152v-4.6A3.468,3.468,0,0,1,139.483,47.529Z" transform="translate(-130.377 -44.314)" fill="#a06e50"/>
  <path id="Path_525" data-name="Path 525" d="M262.491,316.977l-1.073-1.073,1.148-1.531a.663.663,0,0,0-.234-.991l-2.539-1.27-3.792,13h3.25l3.443-6.885A1.083,1.083,0,0,0,262.491,316.977Z" transform="translate(-242.494 -291.022)" fill="#dbd9dc"/>
  <path id="Path_526" data-name="Path 526" d="M320.2,23.48l-.068,3.792a5.982,5.982,0,0,1,1.625,3.792v.669a1.083,1.083,0,0,0,.949,1.075l1.218.152V26.73A3.468,3.468,0,0,0,320.2,23.48Z" transform="translate(-302.29 -21.89)" fill="#cd916e"/>
  <path id="Path_527" data-name="Path 527" d="M155.583,316.977l1.073-1.073-1.148-1.531a.663.663,0,0,1,.234-.991l2.539-1.27,3.792,13h-3.25l-3.443-6.885A1.083,1.083,0,0,1,155.583,316.977Z" transform="translate(-148.566 -291.022)" fill="#dbd9dc"/>
  <path id="Path_528" data-name="Path 528" d="M145.467,7.5c-4.519,0-5.385,1.374-8.865,2.482a.379.379,0,0,0-.212.565c.755,1.181,3.566,4.26,11.551,2.169a2.531,2.531,0,0,0,1.844-1.947h0a2.533,2.533,0,0,0-1.451-2.683A6.67,6.67,0,0,0,145.467,7.5Z" transform="translate(-130.91 -6.993)" fill="#b67f5f"/>
  <rect id="Rectangle_450" data-name="Rectangle 450" width="5.417" height="3.25" transform="translate(3.215 30.84)" fill="#a5cdff"/>
  <path id="Path_529" data-name="Path 529" d="M200.912,160.322a.507.507,0,0,0-.507.507v.542a.507.507,0,1,0,1.014,0v-.542A.507.507,0,0,0,200.912,160.322Z" transform="translate(-190.655 -149.489)"/>
  <path id="Path_530" data-name="Path 530" d="M297.1,160.322a.507.507,0,0,0-.507.507v.542a.507.507,0,0,0,1.014,0v-.542A.507.507,0,0,0,297.1,160.322Z" transform="translate(-280.348 -149.489)"/>
  <path id="Path_531" data-name="Path 531" d="M228.567,217.3a.507.507,0,0,0-.712-.721,2.234,2.234,0,0,1-2.538,0,.507.507,0,1,0-.712.721,3.2,3.2,0,0,0,3.962,0Z" transform="translate(-213.079 -201.81)"/>
  <path id="Path_532" data-name="Path 532" d="M193.979,136.274H192.9a.507.507,0,1,0,0,1.014h1.083a.507.507,0,0,0,0-1.014Z" transform="translate(-183.18 -127.066)"/>
  <path id="Path_533" data-name="Path 533" d="M289.089,137.288h1.083a.507.507,0,1,0,0-1.014h-1.083a.507.507,0,0,0,0,1.014Z" transform="translate(-272.873 -127.066)"/>
  <path id="Path_534" data-name="Path 534" d="M80.474,24.14l-3.653-1.123a1.162,1.162,0,0,0-.644-1.11l-2.259-1.129V19.166A7.56,7.56,0,0,0,77.1,14.014h.3a1.92,1.92,0,0,0,1.929-1.671,1.858,1.858,0,0,0-1.074-1.88V4.84A3.761,3.761,0,0,0,74.5,1.083h-.086A6.389,6.389,0,0,0,70.67,0a12.921,12.921,0,0,0-6.3,1.423,21.98,21.98,0,0,1-3.148,1.215.507.507,0,0,0-.325.682,4.6,4.6,0,0,0,.826,1.2,4.145,4.145,0,0,0-.73,2.666v3.3a1.849,1.849,0,0,0,.778,3.528h.378a7.557,7.557,0,0,0,3.177,5.153v1.61l-2.259,1.129a1.162,1.162,0,0,0-.644,1.11L58.766,24.14a3.738,3.738,0,0,0-2.653,3.591v6.36a.507.507,0,0,0,1.014,0v-6.36a2.729,2.729,0,0,1,1.937-2.622l3.8-1.168.671.894-.762.762a1.588,1.588,0,0,0-.3,1.836l1.451,2.9H62.543v-.577a.507.507,0,1,0-1.014,0v.577h-2.2a.507.507,0,0,0-.507.507v3.25a.507.507,0,0,0,.507.507h5.417a.507.507,0,0,0,.507-.507v-1.1l.665,1.33a.507.507,0,0,0,.907-.453l-3.443-6.885a.576.576,0,0,1,.108-.666l1.073-1.073a.507.507,0,0,0,.047-.662l-1.148-1.531a.157.157,0,0,1,.055-.234l2-1,1.409,4.831a.507.507,0,1,0,.973-.284l-.222-.762a5.93,5.93,0,0,0,3.9,0L69.62,32.28l-1.094-3.75a.507.507,0,1,0-.973.284l1.58,5.418a.507.507,0,0,0,.973,0l3.622-12.417,2,1a.156.156,0,0,1,.055.234l-1.148,1.531a.507.507,0,0,0,.047.662l1.073,1.073a.576.576,0,0,1,.108.665l-3.443,6.885a.507.507,0,1,0,.907.453l3.442-6.885a1.588,1.588,0,0,0-.3-1.836l-.762-.762.671-.894,3.8,1.168a2.729,2.729,0,0,1,1.937,2.622v6.36a.507.507,0,1,0,1.014,0v-6.36A3.738,3.738,0,0,0,80.474,24.14ZM64.238,33.584h-4.4V31.347H61.53v.035a.507.507,0,1,0,1.014,0v-.035h1.695v2.236Zm.546-31.237A11.937,11.937,0,0,1,70.67,1.014c1.87,0,3.541.782,3.886,1.82a.507.507,0,0,0,.962-.321,2.39,2.39,0,0,0-.1-.257A2.748,2.748,0,0,1,77.238,4.84v5.452h-.577a.577.577,0,0,1-.577-.577V9.174a6.457,6.457,0,0,0-1.774-4.15A.507.507,0,0,0,73.8,4.9c-2.813.888-6.78,1.637-9.7.16a5.452,5.452,0,0,1-1.976-1.64A24.927,24.927,0,0,0,64.784,2.346Zm8.121,18.672-.968,3.319a4.917,4.917,0,0,1-4.634,0l-.968-3.319V19.761a7.537,7.537,0,0,0,6.57,0ZM69.62,19.5a6.542,6.542,0,0,1-6.535-6.535.507.507,0,1,0-1.014,0V13h-.306a.848.848,0,0,1-.843-.937.9.9,0,0,1,.92-.758h.735a1.592,1.592,0,0,0,1.59-1.59V7.8a.507.507,0,0,0-1.014,0V9.715a.577.577,0,0,1-.577.577H62v-3.1a3.416,3.416,0,0,1,.463-1.974,6.967,6.967,0,0,0,1.1.708,9.461,9.461,0,0,0,4.063.985,19.181,19.181,0,0,0,6.165-.944,5.341,5.341,0,0,1,1.281,3.211v.542a1.592,1.592,0,0,0,1.59,1.59h.813a.848.848,0,0,1,.843.936A.9.9,0,0,1,77.4,13h-.229v-.03a.507.507,0,0,0-.507-.507h0a.507.507,0,0,0-.507.506A6.543,6.543,0,0,1,69.62,19.5Z" transform="translate(-56.113 0)"/>
</svg>
