<svg id="Group_673" data-name="Group 673" xmlns="http://www.w3.org/2000/svg" width="29.538" height="23.68" viewBox="0 0 29.538 23.68">
  <g id="Group_32" data-name="Group 32" transform="translate(0 0)">
    <g id="Group_31" data-name="Group 31">
      <path id="Path_54" data-name="Path 54" d="M98.566,48.828a4.48,4.48,0,0,1-4.153-1.538l-.271-.323a11.594,11.594,0,0,1-.036,7.6l.316-.329a4.481,4.481,0,0,1,3.955-1.318l2.246.367v-4.8Z" transform="translate(-71.334 -38.874)" fill="#d4fbff"/>
      <g id="Group_29" data-name="Group 29" transform="translate(22.808 8.093)">
        <path id="Path_55" data-name="Path 55" d="M98.676,48.828a4.48,4.48,0,0,1-4.153-1.538l-.271-.323a11.685,11.685,0,0,1,.32,1.124,4.478,4.478,0,0,0,4.1,1.484l2.056-.337v-.748Z" transform="translate(-94.252 -46.967)" fill="#fff"/>
      </g>
      <circle id="Ellipse_12" data-name="Ellipse 12" cx="11.591" cy="11.591" r="11.591" transform="translate(0.249 0.249)" fill="#d4fbff"/>
      <path id="Path_56" data-name="Path 56" d="M3.75,36.257A11.56,11.56,0,0,0,7.514,44.8a9.972,9.972,0,0,0,0-17.1A11.56,11.56,0,0,0,3.75,36.257Z" transform="translate(-3.501 -24.416)" fill="#6dc9f7"/>
      <g id="Group_30" data-name="Group 30">
        <path id="Path_57" data-name="Path 57" d="M32.2,23.927a.249.249,0,0,0-.2-.056l-2.056.337a4.251,4.251,0,0,1-3.921-1.452l-.245-.292a11.838,11.838,0,1,0-.039,7.868l.281-.293a4.231,4.231,0,0,1,3.735-1.245L32,29.161a.25.25,0,0,0,.29-.246v-4.8A.249.249,0,0,0,32.2,23.927ZM14.59,37.682a11.29,11.29,0,0,1-7.41-2.767A10.262,10.262,0,0,0,8.9,33.522a.249.249,0,0,0-.355-.35,9.757,9.757,0,0,1-1.746,1.4,11.413,11.413,0,0,1-2.151-2.781A6.225,6.225,0,0,0,7.86,26.34a6.2,6.2,0,0,0-.465-2.356,1.369,1.369,0,0,1-1.461-2.143,6.29,6.29,0,0,0-1.288-.948A11.415,11.415,0,0,1,6.8,18.111,9.648,9.648,0,0,1,11.35,26.34a9.7,9.7,0,0,1-.506,3.1.249.249,0,0,0,.157.316.245.245,0,0,0,.08.013.25.25,0,0,0,.236-.17,10.2,10.2,0,0,0,.531-3.261A10.14,10.14,0,0,0,7.18,17.765a11.338,11.338,0,1,1,7.41,19.917Zm17.2-9.06-1.956-.32a4.729,4.729,0,0,0-3.787,1.032,11.819,11.819,0,0,0,.048-5.789A4.754,4.754,0,0,0,30.023,24.7l1.767-.289v4.211Z" transform="translate(-2.75 -14.5)" fill="#3a2c60"/>
        <path id="Path_58" data-name="Path 58" d="M30.168,77.661a.249.249,0,0,0-.331.123,9.735,9.735,0,0,1-1.236,2.01.249.249,0,0,0,.39.311,10.228,10.228,0,0,0,1.3-2.113A.249.249,0,0,0,30.168,77.661Z" transform="translate(-22.117 -61.9)" fill="#3a2c60"/>
        <path id="Path_59" data-name="Path 59" d="M62.07,32.394a.249.249,0,0,0-.432.25,7.8,7.8,0,0,1,.917,3.1,10.14,10.14,0,0,0-3.042-3.676,8.233,8.233,0,0,0-.155-3.349.249.249,0,1,0-.484.119,8.007,8.007,0,0,1,.181,2.919,8.319,8.319,0,0,0-2.408-1.043.249.249,0,1,0-.123.483,7.628,7.628,0,0,1,1.034.346l-.859.508a.249.249,0,0,0,.254.429l1.155-.683a9.543,9.543,0,0,1,4.085,4.353,9.339,9.339,0,0,1-2.446.171l-1.335-1.9A.249.249,0,0,0,58,34.7l1.106,1.577a18.569,18.569,0,0,1-2.143-.309A6,6,0,0,0,54.8,34.586a.249.249,0,0,0-.068.494,5.4,5.4,0,0,1,1.81,1.177,3.485,3.485,0,0,1-1.774,1.637.249.249,0,0,0,.084.484.252.252,0,0,0,.084-.014,3.944,3.944,0,0,0,2.053-1.881,17.907,17.907,0,0,0,3.258.351l-.9.962a.249.249,0,0,0,.364.34l1.231-1.318a8.136,8.136,0,0,0,1.255-.162,9.512,9.512,0,0,1-3.759,4.6l-1.2-.6a.249.249,0,0,0-.223.446l.892.447a7.662,7.662,0,0,1-1.007.417.249.249,0,0,0,.079.486.255.255,0,0,0,.079-.013,8.318,8.318,0,0,0,2.33-1.209,7.985,7.985,0,0,1,.022,2.925.249.249,0,1,0,.491.085,8.237,8.237,0,0,0-.079-3.352A10.141,10.141,0,0,0,62.6,37a9.162,9.162,0,0,1-.525,2.9.249.249,0,1,0,.468.172,9.7,9.7,0,0,0-.473-7.677Z" transform="translate(-41.612 -25.031)" fill="#3a2c60"/>
      </g>
    </g>
  </g>
</svg>
