<?xml version="1.0" encoding="UTF-8"?>
<svg xmlns="http://www.w3.org/2000/svg" xmlns:xlink="http://www.w3.org/1999/xlink" version="1.1" id="Capa_1" x="0px" y="0px" viewBox="0 0 512 512" style="enable-background:new 0 0 512 512;" xml:space="preserve" width="512" height="512">
<g>
	<g>
		<g>
			<g>
				<g>
					<path style="fill:#FFDF3F;" d="M353.629,321.608l32.073-10.691c1.691-0.564,2.832-2.146,2.832-3.929v-23.681&#10;&#9;&#9;&#9;&#9;&#9;&#9;c0-3.801,2.587-7.114,6.274-8.036l49.7-12.425c5.228-1.307,10.292,2.647,10.292,8.036v24.34c0,3.801-2.587,7.114-6.274,8.036&#10;&#9;&#9;&#9;&#9;&#9;&#9;l-23.722,5.931c-1.844,0.461-3.137,2.117-3.137,4.018v19.796c0,5.227-4.782,9.148-9.908,8.122l-57.633-11.527&#10;&#9;&#9;&#9;&#9;&#9;&#9;C349.962,328.765,349.6,322.951,353.629,321.608z"/>
				</g>
				<g>
					<path style="fill:#FFDF3F;" d="M321.608,353.629l-10.691,32.073c-0.564,1.691-2.146,2.832-3.929,2.832h-23.681&#10;&#9;&#9;&#9;&#9;&#9;&#9;c-3.801,0-7.114,2.587-8.036,6.274l-12.425,49.7c-1.307,5.228,2.647,10.292,8.036,10.292h24.34&#10;&#9;&#9;&#9;&#9;&#9;&#9;c3.801,0,7.114-2.587,8.036-6.274l5.93-23.722c0.461-1.844,2.118-3.137,4.018-3.137h19.796c5.227,0,9.148-4.782,8.122-9.908&#10;&#9;&#9;&#9;&#9;&#9;&#9;l-11.527-57.633C328.765,349.962,322.951,349.6,321.608,353.629z"/>
				</g>
			</g>
		</g>
		<g>
			<g>
				<path style="fill:#FFF5F5;" d="M289.133,309.72v-24.385c0-5.119-4.596-9.012-9.645-8.171l-70.465,11.744&#10;&#9;&#9;&#9;&#9;&#9;c-10.098,1.683-19.29-6.104-19.29-16.341V238.55c0-3.69-4.461-5.538-7.07-2.929l-73.566,73.566&#10;&#9;&#9;&#9;&#9;&#9;c-8.874,8.874-22.001,11.973-33.907,8.004l-7.42-2.473c-23.991-7.997-49.922,4.969-57.919,28.96v0&#10;&#9;&#9;&#9;&#9;&#9;c-5.484,16.454-1.202,34.594,11.062,46.857l15.833,15.833c2.295,2.295,4.173,6.829,4.173,10.076v0&#10;&#9;&#9;&#9;&#9;&#9;c-3.045,15.223,1.72,30.961,12.698,41.939s26.716,15.743,41.939,12.698h0c3.246,0,7.78,1.878,10.076,4.173l15.833,15.833&#10;&#9;&#9;&#9;&#9;&#9;c12.264,12.264,30.404,16.546,46.857,11.062h0c23.991-7.997,36.957-33.928,28.96-57.919l-2.473-7.42&#10;&#9;&#9;&#9;&#9;&#9;c-3.969-11.906-0.87-25.032,8.004-33.907l81.469-81.469C287.388,318.327,289.133,314.114,289.133,309.72z"/>
				<path style="fill:#FFF5F5;" d="M491.087,121.464L491.087,121.464c-17.189-17.19-40.503-26.847-64.813-26.847&#10;&#9;&#9;&#9;&#9;&#9;c-4.913,0-8.892-3.979-8.892-8.892c0-24.309-9.658-47.623-26.847-64.813h0C378.272,8.649,360.132,4.367,343.678,9.851h0&#10;&#9;&#9;&#9;&#9;&#9;c-23.991,7.997-36.957,33.928-28.959,57.919l2.473,7.42c3.969,11.906,0.87,25.032-8.004,33.906l-81.469,81.469&#10;&#9;&#9;&#9;&#9;&#9;c-3.107,3.107-4.852,7.321-4.852,11.714v40.952c0,5.119,4.596,9.012,9.645,8.171l70.465-11.744&#10;&#9;&#9;&#9;&#9;&#9;c10.098-1.683,19.29,6.104,19.29,16.341v17.45c0,3.69,4.461,5.538,7.07,2.929l73.566-73.566&#10;&#9;&#9;&#9;&#9;&#9;c8.874-8.874,22.001-11.973,33.907-8.004l7.42,2.473c23.991,7.997,49.922-4.969,57.919-28.96v0&#10;&#9;&#9;&#9;&#9;&#9;C507.634,151.868,503.351,133.728,491.087,121.464z"/>
			</g>
		</g>
		<g>
			<g>
				<g>
					<path style="fill:#FFDF3F;" d="M158.371,190.392l-32.073,10.691c-1.691,0.564-2.832,2.146-2.832,3.929v23.681&#10;&#9;&#9;&#9;&#9;&#9;&#9;c0,3.801-2.587,7.114-6.274,8.036l-49.7,12.425c-5.228,1.307-10.292-2.647-10.292-8.036v-24.34&#10;&#9;&#9;&#9;&#9;&#9;&#9;c0-3.801,2.587-7.114,6.274-8.036l23.722-5.93c1.844-0.461,3.137-2.118,3.137-4.018v-19.796c0-5.227,4.782-9.148,9.908-8.122&#10;&#9;&#9;&#9;&#9;&#9;&#9;l57.633,11.527C162.039,183.235,162.401,189.049,158.371,190.392z"/>
				</g>
				<g>
					<path style="fill:#FFDF3F;" d="M190.392,158.371l10.691-32.073c0.564-1.691,2.146-2.832,3.929-2.832h23.681&#10;&#9;&#9;&#9;&#9;&#9;&#9;c3.801,0,7.114-2.587,8.036-6.274l12.425-49.7c1.307-5.228-2.647-10.292-8.036-10.292h-24.34c-3.801,0-7.114,2.587-8.036,6.274&#10;&#9;&#9;&#9;&#9;&#9;&#9;l-5.93,23.722c-0.461,1.844-2.118,3.137-4.018,3.137h-19.796c-5.227,0-9.148,4.782-8.122,9.908l11.527,57.633&#10;&#9;&#9;&#9;&#9;&#9;&#9;C183.235,162.039,189.049,162.401,190.392,158.371z"/>
				</g>
			</g>
		</g>
		<g>
			<g>
				<path style="fill:#FEBF41;" d="M444.508,262.846l-14.048,3.512c0.843,1.289,1.341,2.836,1.341,4.524v24.34&#10;&#9;&#9;&#9;&#9;&#9;c0,3.801-2.587,7.114-6.274,8.036l-23.722,5.93c-1.844,0.461-3.137,2.117-3.137,4.018v19.796c0,1.964-0.676,3.744-1.791,5.146&#10;&#9;&#9;&#9;&#9;&#9;l14.883,2.977c5.126,1.025,9.908-2.895,9.908-8.122v-19.796c0-1.901,1.293-3.557,3.137-4.018l23.722-5.93&#10;&#9;&#9;&#9;&#9;&#9;c3.688-0.922,6.274-4.235,6.274-8.036v-24.34C454.8,265.493,449.736,261.539,444.508,262.846z"/>
				<path style="fill:#FEBF41;" d="M341.125,411.759l-11.526-57.633c-0.833-4.165-6.647-4.527-7.99-0.497l-9.443,28.33l5.96,29.801&#10;&#9;&#9;&#9;&#9;&#9;c1.025,5.126-2.895,9.908-8.122,9.908h-19.796c-1.9,0-3.557,1.293-4.018,3.137l-5.93,23.722&#10;&#9;&#9;&#9;&#9;&#9;c-0.922,3.688-4.235,6.274-8.036,6.274h23c3.801,0,7.114-2.587,8.036-6.274l5.93-23.722c0.461-1.844,2.118-3.137,4.018-3.137&#10;&#9;&#9;&#9;&#9;&#9;h19.796C338.229,421.667,342.15,416.885,341.125,411.759z"/>
			</g>
		</g>
		<g>
			<path style="fill:#FAE1E1;" d="M279.488,277.164l-15.528,2.588c1.34,1.463,2.173,3.41,2.173,5.583v24.385&#10;&#9;&#9;&#9;&#9;c0,4.394-1.745,8.608-4.852,11.714l-81.469,81.469c-8.874,8.874-11.973,22.001-8.004,33.907l2.473,7.42&#10;&#9;&#9;&#9;&#9;c7.997,23.991-4.969,49.922-28.96,57.919h0c-0.985,0.328-1.976,0.619-2.971,0.878c8.405,2.179,17.415,1.974,25.971-0.878h0&#10;&#9;&#9;&#9;&#9;c23.991-7.997,36.957-33.928,28.96-57.919l-2.473-7.42c-3.969-11.906-0.87-25.032,8.004-33.907l81.469-81.469&#10;&#9;&#9;&#9;&#9;c3.107-3.107,4.852-7.321,4.852-11.714v-24.385C289.133,280.216,284.537,276.322,279.488,277.164z"/>
			<path style="fill:#FAE1E1;" d="M413.81,194.808c-11.906-3.969-25.032-0.87-33.907,8.004l-57.636,57.636v13.001&#10;&#9;&#9;&#9;&#9;c0,3.69,4.461,5.538,7.07,2.929l73.566-73.566c3.454-3.454,7.556-6.02,11.976-7.648L413.81,194.808z"/>
			<path style="fill:#FAE1E1;" d="M491.087,121.464L491.087,121.464c-17.189-17.19-40.503-26.847-64.813-26.847&#10;&#9;&#9;&#9;&#9;c-4.913,0-8.892-3.979-8.892-8.892c0-24.309-9.658-47.623-26.847-64.813h0c-11.53-11.53-28.253-16.003-43.886-11.94&#10;&#9;&#9;&#9;&#9;c7.758,2.012,15,6.053,20.886,11.94h0c17.189,17.19,26.846,40.503,26.847,64.813c0,4.913,3.979,8.892,8.892,8.892&#10;&#9;&#9;&#9;&#9;c24.31,0,47.623,9.658,64.813,26.847v0c12.264,12.264,16.546,30.404,11.062,46.857v0c-5.088,15.265-17.441,26.054-31.931,29.832&#10;&#9;&#9;&#9;&#9;c23.119,6.019,47.265-6.834,54.931-29.832v0C507.634,151.868,503.351,133.728,491.087,121.464z"/>
		</g>
		<g>
			<g>
				<g>
					<path style="fill:#FEBF41;" d="M157.874,182.402l-22.73-4.546c3.899,1.032,4.164,6.6,0.228,7.913l-32.073,10.691&#10;&#9;&#9;&#9;&#9;&#9;&#9;c-1.691,0.564-2.832,2.146-2.832,3.929v34.037c0,3.801-2.587,7.114-6.274,8.036l23-5.732c3.688-0.922,6.274-4.235,6.274-8.036&#10;&#9;&#9;&#9;&#9;&#9;&#9;v-23.681c0-1.783,1.141-3.365,2.832-3.929l32.073-10.691C162.4,189.049,162.039,183.235,157.874,182.402z"/>
				</g>
				<g>
					<g>
						<path style="fill:#FEBF41;" d="M241.118,57.2h-23c5.389,0,9.343,5.064,8.036,10.292l-12.425,49.7&#10;&#9;&#9;&#9;&#9;&#9;&#9;&#9;c-0.922,3.687-4.235,6.274-8.036,6.274h23c3.801,0,7.114-2.587,8.036-6.274l12.425-49.7&#10;&#9;&#9;&#9;&#9;&#9;&#9;&#9;C250.461,62.264,246.507,57.2,241.118,57.2z"/>
					</g>
				</g>
			</g>
		</g>
	</g>
	<g>
		<g>
			<g>
				<path style="fill:none;stroke:#000000;stroke-width:15;stroke-linecap:round;stroke-linejoin:round;stroke-miterlimit:10;" d="&#10;&#9;&#9;&#9;&#9;&#9;M353.629,321.608l32.073-10.691c1.691-0.564,2.832-2.146,2.832-3.929v-23.681c0-3.801,2.587-7.114,6.274-8.036l49.7-12.425&#10;&#9;&#9;&#9;&#9;&#9;c5.228-1.307,10.292,2.647,10.292,8.036v24.34c0,3.801-2.587,7.114-6.274,8.036l-23.722,5.931&#10;&#9;&#9;&#9;&#9;&#9;c-1.844,0.461-3.137,2.117-3.137,4.018v19.796c0,5.227-4.782,9.148-9.908,8.122l-57.633-11.527&#10;&#9;&#9;&#9;&#9;&#9;C349.962,328.765,349.6,322.951,353.629,321.608z"/>
			</g>
			<g>
				<path style="fill:none;stroke:#000000;stroke-width:15;stroke-linecap:round;stroke-linejoin:round;stroke-miterlimit:10;" d="&#10;&#9;&#9;&#9;&#9;&#9;M321.608,353.629l-10.691,32.073c-0.564,1.691-2.146,2.832-3.929,2.832h-23.681c-3.801,0-7.114,2.587-8.036,6.274l-12.425,49.7&#10;&#9;&#9;&#9;&#9;&#9;c-1.307,5.228,2.647,10.292,8.036,10.292h24.34c3.801,0,7.114-2.587,8.036-6.274l5.93-23.722&#10;&#9;&#9;&#9;&#9;&#9;c0.461-1.844,2.118-3.137,4.018-3.137h19.796c5.227,0,9.148-4.782,8.122-9.908l-11.527-57.633&#10;&#9;&#9;&#9;&#9;&#9;C328.765,349.962,322.951,349.6,321.608,353.629z"/>
			</g>
		</g>
		<g>
			<path style="fill:none;stroke:#000000;stroke-width:15;stroke-linecap:round;stroke-linejoin:round;stroke-miterlimit:10;" d="&#10;&#9;&#9;&#9;&#9;M125.01,293.275l-15.912,15.912c-8.874,8.874-22.001,11.973-33.907,8.004l-7.42-2.473c-23.991-7.997-49.922,4.969-57.919,28.96v0&#10;&#9;&#9;&#9;&#9;c-5.484,16.454-1.202,34.594,11.062,46.857l15.833,15.833c2.295,2.295,4.173,6.829,4.173,10.076v0&#10;&#9;&#9;&#9;&#9;c-3.045,15.223,1.72,30.961,12.698,41.939s26.716,15.743,41.939,12.698h0c3.246,0,7.78,1.878,10.076,4.173l15.833,15.833&#10;&#9;&#9;&#9;&#9;c12.264,12.264,30.404,16.546,46.857,11.062h0c23.991-7.997,36.957-33.928,28.96-57.919l-2.473-7.42&#10;&#9;&#9;&#9;&#9;c-3.969-11.906-0.87-25.032,8.004-33.907l81.469-81.469c3.107-3.107,4.852-7.321,4.852-11.714v-24.385&#10;&#9;&#9;&#9;&#9;c0-5.119-4.596-9.012-9.645-8.171l-70.465,11.744c-10.098,1.683-19.29-6.104-19.29-16.341V238.55c0-3.69-4.461-5.538-7.07-2.929&#10;&#9;&#9;&#9;&#9;l-32.905,32.905"/>
			<path style="fill:none;stroke:#000000;stroke-width:15;stroke-linecap:round;stroke-linejoin:round;stroke-miterlimit:10;" d="&#10;&#9;&#9;&#9;&#9;M268.327,149.957l-40.609,40.609c-3.107,3.107-4.852,7.321-4.852,11.714v40.952c0,5.119,4.596,9.012,9.645,8.171l70.465-11.744&#10;&#9;&#9;&#9;&#9;c10.098-1.683,19.29,6.104,19.29,16.341v17.45c0,3.69,4.461,5.538,7.07,2.929l73.566-73.566&#10;&#9;&#9;&#9;&#9;c8.874-8.874,22.001-11.973,33.907-8.004l7.42,2.473c23.991,7.997,49.922-4.969,57.919-28.96v0&#10;&#9;&#9;&#9;&#9;c5.484-16.454,1.202-34.594-11.062-46.857v0c-17.189-17.189-40.503-26.847-64.813-26.847c-4.913,0-8.892-3.979-8.892-8.892&#10;&#9;&#9;&#9;&#9;c0-24.309-9.658-47.623-26.847-64.813h0C378.272,8.649,360.132,4.367,343.678,9.851h0c-23.991,7.997-36.957,33.928-28.959,57.919&#10;&#9;&#9;&#9;&#9;l2.473,7.42c3.969,11.906,0.87,25.032-8.004,33.906l-16.112,16.112"/>
		</g>
		<g>
			<g>
				<path style="fill:none;stroke:#000000;stroke-width:15;stroke-linecap:round;stroke-linejoin:round;stroke-miterlimit:10;" d="&#10;&#9;&#9;&#9;&#9;&#9;M158.371,190.392l-32.073,10.691c-1.691,0.564-2.832,2.146-2.832,3.929v23.681c0,3.801-2.587,7.114-6.274,8.036l-49.7,12.425&#10;&#9;&#9;&#9;&#9;&#9;c-5.228,1.307-10.292-2.647-10.292-8.036v-24.34c0-3.801,2.587-7.114,6.274-8.036l23.722-5.93&#10;&#9;&#9;&#9;&#9;&#9;c1.844-0.461,3.137-2.118,3.137-4.018v-19.796c0-5.227,4.782-9.148,9.908-8.122l57.633,11.527&#10;&#9;&#9;&#9;&#9;&#9;C162.039,183.235,162.401,189.049,158.371,190.392z"/>
			</g>
			<g>
				<path style="fill:none;stroke:#000000;stroke-width:15;stroke-linecap:round;stroke-linejoin:round;stroke-miterlimit:10;" d="&#10;&#9;&#9;&#9;&#9;&#9;M190.392,158.371l10.691-32.073c0.564-1.691,2.146-2.832,3.929-2.832h23.681c3.801,0,7.114-2.587,8.036-6.274l12.425-49.7&#10;&#9;&#9;&#9;&#9;&#9;c1.307-5.228-2.647-10.292-8.036-10.292h-24.34c-3.801,0-7.114,2.587-8.036,6.274l-5.93,23.722&#10;&#9;&#9;&#9;&#9;&#9;c-0.461,1.844-2.118,3.137-4.018,3.137h-19.796c-5.227,0-9.148,4.782-8.122,9.908l11.527,57.633&#10;&#9;&#9;&#9;&#9;&#9;C183.235,162.039,189.049,162.401,190.392,158.371z"/>
			</g>
		</g>
	</g>
</g>















</svg>
