<svg id="Group_672" data-name="Group 672" xmlns="http://www.w3.org/2000/svg" width="22.819" height="33.563" viewBox="0 0 22.819 33.563">
  <g id="Group_38" data-name="Group 38" transform="translate(0 0)">
    <g id="Group_37" data-name="Group 37">
      <g id="Group_34" data-name="Group 34" transform="translate(0.285 0.283)">
        <path id="Path_61" data-name="Path 61" d="M68.338,47.861c1.446.738,5.155.946,6.876,2.815a13.457,13.457,0,0,0-.61-3.319A10.6,10.6,0,0,0,70.59,42.1H69C67.379,42.1,66.732,47.042,68.338,47.861Z" transform="translate(-54.754 -31.237)" fill="#6dc9f7"/>
        <path id="Path_62" data-name="Path 62" d="M24.972,20.374c.958-5.34,5.632-10.3,8.879-10.3h3.358A7.031,7.031,0,0,0,36.127,8.59,3.748,3.748,0,0,0,34.387,7.5V4.316a2.093,2.093,0,0,0-1.635-.566,1.888,1.888,0,0,0-1.577.566V7.5a4.641,4.641,0,0,0-1.609,1.213,7.357,7.357,0,0,0-1.035,1.716V4.316a2.4,2.4,0,0,0-1.738-.566,2.9,2.9,0,0,0-1.851.566v7.43A12.053,12.053,0,0,0,22.8,20.374a12.279,12.279,0,0,0,2.1,5.381A14.661,14.661,0,0,1,24.972,20.374Z" transform="translate(-22.723 -3.75)" fill="#6dc9f7"/>
      </g>
      <path id="Path_63" data-name="Path 63" d="M29.938,36.387c.958-5.34,5.632-10.3,8.879-10.3h9.068s.85.214.85,2.284-.85,2.25-.85,2.25h-5.95c-1.62,0-2.267,4.943-.661,5.762s6,.985,7.367,3.495c2.487,4.565,1.543,12.98-4.188,12.877-4.577-.082-9.7-2.267-12.437-6.076A12.846,12.846,0,0,1,29.938,36.387Z" transform="translate(-27.403 -19.48)" fill="#fa759e"/>
      <g id="Group_35" data-name="Group 35" transform="translate(5.536 19.199)">
        <path id="Path_64" data-name="Path 64" d="M56.963,71.738a3.74,3.74,0,0,0-1.075-1.2,3.238,3.238,0,0,1,.225.353c2.487,4.565,1.543,12.98-4.188,12.877a16.877,16.877,0,0,1-10.664-4.108,16.576,16.576,0,0,0,11.514,4.957c5.73.1,6.675-8.312,4.188-12.877Z" transform="translate(-41.262 -70.536)" fill="#fff"/>
      </g>
      <g id="Group_36" data-name="Group 36">
        <path id="Path_65" data-name="Path 65" d="M42.2,32.54a14.615,14.615,0,0,0-1.564,1.67.283.283,0,1,0,.442.355,14.018,14.018,0,0,1,1.5-1.605.283.283,0,1,0-.381-.419Z" transform="translate(-35.236 -24.05)" fill="#3a2c60"/>
        <path id="Path_66" data-name="Path 66" d="M43.2,23.016a3.684,3.684,0,0,0-.469-.667,13.592,13.592,0,0,0-.611-3.281,10.491,10.491,0,0,0-3.443-4.89H42.2a.292.292,0,0,0,.059-.006c.11-.023,1.074-.292,1.074-2.527s-.955-2.531-1.064-2.559a.286.286,0,0,0-.069-.008H36.651a7,7,0,0,0-1.044-1.4,4.509,4.509,0,0,0-1.658-1.106V3.6a.284.284,0,0,0-.062-.177,2.364,2.364,0,0,0-1.855-.672,2.154,2.154,0,0,0-1.809.687.283.283,0,0,0-.051.163v3a4.809,4.809,0,0,0-1.548,1.216,8.7,8.7,0,0,0-.53.749V3.6a.284.284,0,0,0-.075-.192,2.673,2.673,0,0,0-1.946-.658,3.174,3.174,0,0,0-2.04.638.283.283,0,0,0-.095.212v7.33a12.385,12.385,0,0,0-2.14,8.756,12.52,12.52,0,0,0,2.12,5.475A12.558,12.558,0,0,0,26.1,30.118c2.6,3.616,7.688,6.105,12.662,6.194h.108a4.955,4.955,0,0,0,4.407-2.548c1.708-2.818,1.676-7.539-.073-10.749Zm-1.621-3.778a13.2,13.2,0,0,1,.531,2.534,12.128,12.128,0,0,0-4.383-1.74,10.938,10.938,0,0,1-2.015-.628c-.78-.4-.943-2.17-.606-3.576.241-1,.687-1.65,1.138-1.65h1.489a10.3,10.3,0,0,1,3.846,5.06Zm1.21,14.234a4.42,4.42,0,0,1-4.02,2.274c-4.8-.086-9.711-2.48-12.212-5.959a12.576,12.576,0,0,1-2.029-10.08,12.4,12.4,0,0,1,.328-1.359c.22,1.439.856,3.651,2.7,4.6a.283.283,0,1,0,.259-.5,3.734,3.734,0,0,1-1.471-1.437,3.622,3.622,0,0,0,2.1-.981.283.283,0,0,0-.457-.335,3.5,3.5,0,0,1-1.924.789,9.422,9.422,0,0,1-.757-3.4,15.434,15.434,0,0,1,1.677-3.048.283.283,0,0,0-.463-.327,15.994,15.994,0,0,0-1.753,3.2c0,.007-.006.014-.009.022a13.6,13.6,0,0,0-.789,2.683,16,16,0,0,0-.254,4.1,11,11,0,0,1-1.358-4.083,11.9,11.9,0,0,1,2.076-8.415.285.285,0,0,0,.067-.182V7.708a2.827,2.827,0,0,1,1.568-.426.283.283,0,1,0,0-.566,3.533,3.533,0,0,0-1.568.344V5.725A2.827,2.827,0,0,1,26.071,5.3a.283.283,0,0,0,0-.566,3.533,3.533,0,0,0-1.568.344V3.742a2.843,2.843,0,0,1,1.568-.426,2.346,2.346,0,0,1,1.455.41v5.98a.283.283,0,0,0,.547.1,7.18,7.18,0,0,1,.993-1.642,4.381,4.381,0,0,1,1.5-1.128.284.284,0,0,0,.172-.26V3.708a1.835,1.835,0,0,1,1.294-.392,2.03,2.03,0,0,1,1.351.4V6.779a.285.285,0,0,0,.23.278,3.564,3.564,0,0,1,1.594,1.017,5.965,5.965,0,0,1,.782,1H33.129A6.288,6.288,0,0,0,29.5,10.563a.283.283,0,0,0,.342.451,5.747,5.747,0,0,1,3.289-1.37H37.61c.115.062.623.425.623,2a.283.283,0,1,0,.566,0,3.817,3.817,0,0,0-.426-2h1.5c.115.062.623.425.623,2a.283.283,0,1,0,.566,0,3.817,3.817,0,0,0-.426-2h1.5c.118.064.622.431.622,2,0,1.6-.521,1.921-.612,1.966h-5.9c-.744,0-1.375.779-1.689,2.084-.372,1.55-.22,3.468.76,4.127a22.549,22.549,0,0,1,.006,3.779,8.346,8.346,0,0,1-1.64,1.046.283.283,0,0,0,.094.55.288.288,0,0,0,.094-.016,6.688,6.688,0,0,0,1.377-.817,14.968,14.968,0,0,1-1.716,5.666.283.283,0,0,0,.491.282A13.344,13.344,0,0,0,35.3,27.181a6.576,6.576,0,0,1,2.082,2.638l-1.392,1.986a.283.283,0,0,0,.464.325l1.2-1.71a14.046,14.046,0,0,1,.736,2.292.284.284,0,0,0,.277.227.276.276,0,0,0,.057-.006.283.283,0,0,0,.221-.334c-.038-.186-.934-4.46-3.5-6a22.244,22.244,0,0,0,.469-6.5c.465.171,1.039.316,1.678.478,1.881.476,4.222,1.068,5.115,2.706,1.633,3,1.672,7.567.086,10.185Z" transform="translate(-21.717 -2.75)" fill="#3a2c60"/>
      </g>
    </g>
  </g>
</svg>
