<svg id="Nephrologists" xmlns="http://www.w3.org/2000/svg" width="28" height="26.632" viewBox="0 0 28 26.632">
  <g id="Group_12" data-name="Group 12" transform="translate(0 0)">
    <g id="Group_11" data-name="Group 11">
      <path id="Path_23" data-name="Path 23" d="M15.271,6.408v6.625s2.465,3.567,1.783,6.189a4.3,4.3,0,0,1-5.14,3.042c-1.135-.292-2.347-1.757-4.353-1.56a4.054,4.054,0,0,0-.772.16A5.442,5.442,0,0,0,3,26.1v5.513a2.583,2.583,0,0,0,1.71.479c1.2,0,1.542-.479,1.542-.479V26.835a.86.86,0,0,1,1.5-.576,14.5,14.5,0,0,0,5.635,3.768A13.215,13.215,0,0,0,29.4,22.259c3.015-7.585-.508-12.576-4.8-12.373a8.63,8.63,0,0,0-4.635,1.924.828.828,0,0,1-1.344-.647V6.408a2.354,2.354,0,0,0-1.62-.479,2.921,2.921,0,0,0-1.737.479Z" transform="translate(-2.765 -5.696)" fill="#fa759e"/>
      <g id="Group_8" data-name="Group 8" transform="translate(12.507 0.233)">
        <path id="Path_24" data-name="Path 24" d="M58.957,7.108v-.7a2.354,2.354,0,0,0-1.62-.479,2.92,2.92,0,0,0-1.737.479v.7a2.92,2.92,0,0,1,1.737-.479A2.354,2.354,0,0,1,58.957,7.108Z" transform="translate(-55.6 -5.929)" fill="#fff"/>
      </g>
      <path id="Path_25" data-name="Path 25" d="M32.986,58.645c-.778.437-.578,1.417-1.478,1.867-.875.437-2.392-.894-3.733.078s-.71,2.372-1.944,2.722-2.469-1.254-4.666-.467-2.362,2.411-4.278,2.411-3.022-1.576-4.511-1.867a2.476,2.476,0,0,0-.891.006,3.488,3.488,0,0,0-2.842,3.463v5.485c.122.012.253.019.393.019,1.2,0,1.542-.479,1.542-.479V67.1a.86.86,0,0,1,1.5-.576,14.5,14.5,0,0,0,5.635,3.768,13.215,13.215,0,0,0,16.02-7.767,15.8,15.8,0,0,0,1.028-3.881,2.231,2.231,0,0,0-1.773,0Z" transform="translate(-7.092 -45.963)" fill="#d4fbff"/>
      <g id="Group_9" data-name="Group 9">
        <path id="Path_26" data-name="Path 26" d="M28.591,11.271A5.475,5.475,0,0,0,23.83,8.886a9.057,9.057,0,0,0-4.769,1.975.594.594,0,0,1-.966-.465V5.641a.233.233,0,0,0-.069-.166,2.572,2.572,0,0,0-1.784-.546,3.139,3.139,0,0,0-1.882.53.233.233,0,0,0-.088.182V7.2a.233.233,0,1,0,.467,0V5.766a2.937,2.937,0,0,1,1.5-.37,2.408,2.408,0,0,1,1.386.358V10.4a1.061,1.061,0,0,0,1.723.83,8.573,8.573,0,0,1,4.5-1.874,5.017,5.017,0,0,1,4.36,2.19A8.306,8.306,0,0,1,29.468,17.3a2.252,2.252,0,0,0-1.69.111,1.883,1.883,0,0,0-.77.988,1.511,1.511,0,0,1-.7.873,1.922,1.922,0,0,1-1.2-.1,2.845,2.845,0,0,0-2.566.193,2.931,2.931,0,0,0-1.087,1.68c-.165.519-.274.862-.784,1.007a2.45,2.45,0,0,1-1.462-.258,4.283,4.283,0,0,0-3.22-.2A5.981,5.981,0,0,0,13.817,23a2.723,2.723,0,0,1-2.025.986A4.848,4.848,0,0,1,9.178,23a5.551,5.551,0,0,0-1.852-.873,2.712,2.712,0,0,0-.975,0,3.7,3.7,0,0,0-3.036,3.693v5.216a2.279,2.279,0,0,1-.85-.308v-5.4A5.227,5.227,0,0,1,6.09,20.32a3.856,3.856,0,0,1,.728-.151,4.7,4.7,0,0,1,2.979.924,5.209,5.209,0,0,0,1.294.631,4.539,4.539,0,0,0,5.424-3.209,4.214,4.214,0,0,0-.81-3.53,5.079,5.079,0,0,1-.966-2.717V10.729a.233.233,0,1,0-.467,0v1.537A5.454,5.454,0,0,0,15.3,15.224a3.742,3.742,0,0,1,.758,3.172,4.065,4.065,0,0,1-4.856,2.875,4.919,4.919,0,0,1-1.17-.579A5.147,5.147,0,0,0,6.772,19.7a4.33,4.33,0,0,0-.817.168A5.7,5.7,0,0,0,2,25.336v5.513a.233.233,0,0,0,.074.171,2.8,2.8,0,0,0,1.87.542c1.28,0,1.688-.517,1.731-.576a.234.234,0,0,0,.044-.136V26.068a.626.626,0,0,1,1.092-.42,14.631,14.631,0,0,0,5.73,3.831,13.4,13.4,0,0,0,16.314-7.9c1.613-4.058,1.518-7.815-.262-10.308Zm-.172,10.135a12.924,12.924,0,0,1-15.726,7.633,14.385,14.385,0,0,1-5.539-3.7,1.093,1.093,0,0,0-1.905.733v4.686a2,2,0,0,1-1.308.341c-.056,0-.107,0-.16-.006V25.824A3.235,3.235,0,0,1,6.43,22.591a2.258,2.258,0,0,1,.807-.007,5.207,5.207,0,0,1,1.693.81,5.289,5.289,0,0,0,2.862,1.061,3.169,3.169,0,0,0,2.34-1.109,5.588,5.588,0,0,1,2.016-1.316,3.84,3.84,0,0,1,2.9.2,2.8,2.8,0,0,0,1.753.27c.751-.213.929-.773,1.1-1.314a2.473,2.473,0,0,1,.917-1.444,2.408,2.408,0,0,1,2.175-.119,2.214,2.214,0,0,0,1.526.061,1.956,1.956,0,0,0,.915-1.1,1.449,1.449,0,0,1,.573-.772,1.86,1.86,0,0,1,1.4-.047,15.942,15.942,0,0,1-.992,3.638Z" transform="translate(-1.998 -4.929)" fill="#3a2c60"/>
        <path id="Path_27" data-name="Path 27" d="M54.832,19.567a.233.233,0,0,0,.233-.233V17.642a.233.233,0,1,0-.467,0v1.692A.233.233,0,0,0,54.832,19.567Z" transform="translate(-42.326 -14.497)" fill="#3a2c60"/>
      </g>
      <g id="Group_10" data-name="Group 10" transform="translate(8.081 7.249)">
        <circle id="Ellipse_1" data-name="Ellipse 1" cx="1.432" cy="1.432" r="1.432" transform="translate(5.918 13.367)" fill="#6dc9f7"/>
        <circle id="Ellipse_2" data-name="Ellipse 2" cx="1.145" cy="1.145" r="1.145" transform="translate(13.57 3.45)" fill="#6dc9f7"/>
        <ellipse id="Ellipse_3" data-name="Ellipse 3" cx="0.816" cy="0.816" rx="0.816" ry="0.816" transform="translate(8.782 4.434)" fill="#6dc9f7"/>
        <circle id="Ellipse_4" data-name="Ellipse 4" cx="0.53" cy="0.53" r="0.53" transform="translate(15.713)" fill="#6dc9f7"/>
        <circle id="Ellipse_5" data-name="Ellipse 5" cx="0.53" cy="0.53" r="0.53" transform="translate(17.736 2.835)" fill="#6dc9f7"/>
        <circle id="Ellipse_6" data-name="Ellipse 6" cx="0.53" cy="0.53" r="0.53" transform="translate(7.094 7.233)" fill="#6dc9f7"/>
        <ellipse id="Ellipse_7" data-name="Ellipse 7" cx="0.859" cy="0.859" rx="0.859" ry="0.859" transform="translate(10.876 11.909)" fill="#6dc9f7"/>
        <ellipse id="Ellipse_8" data-name="Ellipse 8" cx="0.859" cy="0.859" rx="0.859" ry="0.859" transform="translate(13.676 8.817)" fill="#6dc9f7"/>
        <ellipse id="Ellipse_9" data-name="Ellipse 9" cx="0.43" cy="0.43" rx="0.43" ry="0.43" transform="translate(3.219 12.767)" fill="#6dc9f7"/>
        <ellipse id="Ellipse_10" data-name="Ellipse 10" cx="0.43" cy="0.43" rx="0.43" ry="0.43" transform="translate(16.877 8.817)" fill="#6dc9f7"/>
        <ellipse id="Ellipse_11" data-name="Ellipse 11" cx="0.43" cy="0.43" rx="0.43" ry="0.43" transform="translate(0 13.626)" fill="#6dc9f7"/>
      </g>
    </g>
  </g>
</svg>
