<svg id="Capa_1" enable-background="new 0 0 512 512" height="512" viewBox="0 0 512 512" width="512" xmlns="http://www.w3.org/2000/svg"><g><g><path d="m135.568 61.299c-1.202 1.313-17.425 21.001-22.809 131.25h-42.629c12.314-46.285 33.426-100.743 65.438-131.25z" fill="#465961"/></g><g><path d="m441.87 61.299c-1.202 1.313-17.425 21.001-22.809 131.25h-42.629c12.314-46.285 33.426-100.743 65.438-131.25z" fill="#465961"/></g><g><path d="m7.5 192.549h497v80.813h-497z" fill="#fcd0a3"/></g><g><path d="m474.195 192.549h30.305v80.813h-30.305z" fill="#ffb983"/></g><g><path d="m7.5 273.363h497v181.829h-497z" fill="#fc8086"/></g><g><path d="m474.195 273.363h30.305v181.829h-30.305z" fill="#fb636f"/></g><g><path d="m504.5 431.958-37.138 12.077c-16.242 5.282-33.74 5.282-49.982 0l-12.147-3.95c-16.242-5.282-33.741-5.282-49.983 0l-12.143 3.949c-16.243 5.282-33.742 5.282-49.984 0l-12.139-3.948c-16.243-5.282-33.743-5.282-49.986 0l-12.135 3.947c-16.243 5.283-33.743 5.283-49.986 0l-12.138-3.947c-16.243-5.282-33.742-5.282-49.985 0l-12.139 3.948c-16.243 5.282-33.743 5.282-49.986 0l-37.129-12.076v69.701h497z" fill="#fcee56"/></g><g><path d="m474.195 441.813v59.846h30.305v-69.701z" fill="#f3d802"/></g><g><circle cx="426.718" cy="334.983" fill="#ffc3c6" r="15.152"/></g><g><circle cx="341.864" cy="384.481" fill="#ffc3c6" r="15.152"/></g><g><circle cx="85.282" cy="334.983" fill="#ffc3c6" r="15.152"/></g><g><circle cx="170.136" cy="384.481" fill="#ffc3c6" r="15.152"/></g><g><path d="m285.295 313.769c0 22.316-18.091 40.407-40.407 40.407s-40.407-18.091-40.407-40.407c0-38.386 33.335-229.307 117.179-309.11.001 0-36.365 35.356-36.365 309.11z" fill="#586b76"/></g><g><path d="m280.487 58.229c-8.256 44.892-15.865 120.224-15.865 245.438 0 22.316-18.091 40.407-40.407 40.407-2.272 0-4.496-.197-6.666-.557 7.195 6.616 16.793 10.659 27.338 10.659 22.316 0 40.407-18.091 40.407-40.407 0-273.754 36.366-309.11 36.366-309.11-15.393 14.652-29.078 33.059-41.173 53.57z" fill="#465961"/></g><g><path d="m154.984 323.871c5.579 0 10.102-4.523 10.102-10.102s-4.523-10.102-10.102-10.102-10.102 4.523-10.102 10.102 4.523 10.102 10.102 10.102z"/><circle cx="61.039" cy="403.674" r="10.102"/><circle cx="330.752" cy="309.729" r="10.102"/><circle cx="440.86" cy="399.633" r="10.102"/><circle cx="274.183" cy="403.674" r="10.102"/><path d="m504.5 185.05h-77.535c5.498-98.831 19.679-117.742 20.49-118.745 2.735-3.051 2.525-7.758-.534-10.551-2.962-2.703-7.585-2.416-10.48.359-33.419 32.024-54.022 86.666-65.74 128.937h-20.673c-4.107 0-7.688 3.165-7.811 7.27-.127 4.247 3.278 7.73 7.497 7.73h147.286v65.812h-203.812c.394-23.282 1.086-45.227 2.074-65.812h18.995c4.107 0 7.688-3.165 7.811-7.27.127-4.247-3.278-7.73-7.497-7.73h-18.527c2.779-48.838 7.334-89.44 13.637-121.389 5.494-27.848 11.029-42.045 14.286-48.639 1.575-3.19.966-7.019-1.501-9.583-3.332-3.463-8.883-3.469-12.205.002-42.603 44.511-70.064 114.821-85.813 167.141-1.257 4.175-2.465 8.333-3.632 12.467h-100.153c5.499-98.831 19.678-117.742 20.49-118.745 2.675-2.983 2.533-7.551-.335-10.362-2.886-2.828-7.496-2.86-10.424-.073-33.568 31.991-54.247 86.802-65.995 129.181h-56.899c-4.142 0-7.5 3.358-7.5 7.5v309.109c0 4.142 3.358 7.5 7.5 7.5h324.115c4.107 0 7.688-3.165 7.811-7.27.127-4.247-3.278-7.73-7.497-7.73h-316.929v-51.875l27.31 8.881c17.869 5.813 36.757 5.812 54.625.001l12.139-3.948c14.833-4.821 30.513-4.823 45.346 0l12.138 3.948c17.868 5.811 36.757 5.81 54.625-.001l12.135-3.947c14.834-4.821 30.516-4.822 45.347.001l12.139 3.946c17.867 5.812 36.757 5.813 54.624.001l12.143-3.949c14.832-4.822 30.512-4.822 45.344 0l12.146 3.951c17.867 5.809 36.754 5.809 54.621 0l27.318-8.885v51.876h-129.668c-4.107 0-7.688 3.165-7.811 7.27-.127 4.247 3.278 7.73 7.497 7.73h137.482c4.142 0 7.5-3.358 7.5-7.5v-309.109c0-4.142-3.358-7.5-7.5-7.5zm-83.23-84.946c-3.713 19.177-7.209 46.414-9.329 84.946h-25.652c6.887-23.989 18.305-56.997 34.981-84.946zm-122.644-56.434c-10.173 41.653-20.831 120.902-20.831 270.099 0 18.146-14.762 32.907-32.907 32.907s-32.907-14.762-32.907-32.907c0-7.671 1.359-21.322 4.147-38.801.064-.291.112-.588.14-.891 3.529-21.903 9.28-49.692 17.4-79.278.014-.045.024-.092.037-.137 1.609-5.859 3.308-11.786 5.104-17.754 12.248-40.682 31.693-92.488 59.817-133.238zm-183.657 56.433c-3.713 19.177-7.209 46.415-9.33 84.947h-25.653c6.887-23.988 18.306-56.997 34.983-84.947zm350.074 336.8c-14.832 4.824-30.512 4.821-45.344.001l-12.146-3.95c-17.867-5.811-36.754-5.811-54.621 0l-12.143 3.948c-14.834 4.824-30.514 4.825-45.346-.001l-12.14-3.947c-17.868-5.812-36.757-5.809-54.625.001l-12.135 3.946c-14.833 4.824-30.514 4.824-45.348 0l-12.138-3.947c-17.866-5.81-36.755-5.81-54.624 0l-12.139 3.947c-14.833 4.824-30.514 4.823-45.347.001l-31.947-10.391v-145.648h66.911c4.142 0 7.5-3.357 7.5-7.5s-3.358-7.5-7.5-7.5h-66.911v-65.813h201.742c-6.283 24.06-11.009 46.729-14.262 65.812h-85.534c-4.142 0-7.5 3.357-7.5 7.5s3.358 7.5 7.5 7.5h83.162c-2.101 14.563-3.127 26.005-3.127 32.906 0 26.416 21.491 47.907 47.907 47.907s47.907-21.491 47.907-47.907c0-11.24.064-22.199.184-32.906h204.021v145.648z"/><path d="m449.37 334.983c0-12.49-10.162-22.652-22.652-22.652s-22.652 10.162-22.652 22.652 10.162 22.652 22.652 22.652 22.652-10.162 22.652-22.652zm-22.652 7.652c-4.22 0-7.652-3.433-7.652-7.652s3.433-7.652 7.652-7.652 7.652 3.433 7.652 7.652-3.432 7.652-7.652 7.652z"/><path d="m341.864 361.828c-12.491 0-22.653 10.162-22.653 22.652s10.162 22.652 22.653 22.652c12.49 0 22.652-10.162 22.652-22.652s-10.162-22.652-22.652-22.652zm0 30.305c-4.22 0-7.653-3.433-7.653-7.652s3.434-7.652 7.653-7.652 7.652 3.433 7.652 7.652-3.432 7.652-7.652 7.652z"/><path d="m85.282 312.33c-12.491 0-22.652 10.162-22.652 22.652s10.162 22.652 22.652 22.652 22.653-10.162 22.653-22.652-10.162-22.652-22.653-22.652zm0 30.305c-4.22 0-7.652-3.433-7.652-7.652s3.433-7.652 7.652-7.652c4.22 0 7.653 3.433 7.653 7.652s-3.433 7.652-7.653 7.652z"/><path d="m170.136 361.828c-12.491 0-22.652 10.162-22.652 22.652s10.162 22.652 22.652 22.652 22.652-10.162 22.652-22.652-10.161-22.652-22.652-22.652zm0 30.305c-4.22 0-7.652-3.433-7.652-7.652s3.433-7.652 7.652-7.652 7.652 3.433 7.652 7.652-3.432 7.652-7.652 7.652z"/></g></g></svg>