<svg xmlns="http://www.w3.org/2000/svg" width="28.734" height="24.187" viewBox="0 0 28.734 24.187">
  <g id="Group_75" data-name="Group 75" transform="translate(-2.31 -12.073)">
    <g id="Group_74" data-name="Group 74" transform="translate(2.31 12.073)">
      <path id="Path_107" data-name="Path 107" d="M33.8,23.669a1.168,1.168,0,0,0-.854-.372h-.506c.058-.089.12-.182.181-.275.953-1.433,2.727-4.1-.012-6.207-2.142-1.648-4.316-.171-5.187.743-.87-.914-3.045-2.391-5.187-.743-2.739,2.107-.965,4.774-.012,6.207.061.092.123.185.181.275H18.482c.058-.089.12-.182.181-.275.953-1.433,2.727-4.1-.012-6.207-2.142-1.648-4.316-.171-5.187.743-.87-.914-3.045-2.391-5.187-.743-2.739,2.107-.965,4.774-.012,6.207.061.092.123.185.181.275H7.476a1.164,1.164,0,0,0-1.161,1.251l.961,12.84a2.1,2.1,0,0,0,2.09,1.939H31.059a2.1,2.1,0,0,0,2.09-1.939l.961-12.84a1.171,1.171,0,0,0-.308-.879Z" transform="translate(-5.379 -15.141)" fill="#e6e7e8"/>
      <g id="Group_73" data-name="Group 73" transform="translate(0 0)">
        <path id="Path_108" data-name="Path 108" d="M27.826,59.66H6.132a1.863,1.863,0,0,1-1.858-1.724L3.313,45.1a.931.931,0,0,1,.929-1H29.715a.932.932,0,0,1,.929,1l-.961,12.84A1.863,1.863,0,0,1,27.826,59.66Z" transform="translate(-3.078 -36.637)" fill="#ffd7e5"/>
        <path id="Path_109" data-name="Path 109" d="M30.231,50.616l.413-5.52a.931.931,0,0,0-.929-1H4.241a.932.932,0,0,0-.929,1l.413,5.52a3.393,3.393,0,0,0,3.083,2.1c2.29,0,2.368-2.174,3.416-2.1s1.009,2.1,3.3,2.1,2.29-2.1,3.454-2.1.932,2.1,3.377,2.1,2.1-2.1,3.493-2.1c1.32,0,1.126,2.1,3.3,2.1a3.588,3.588,0,0,0,3.083-2.1Z" transform="translate(-3.077 -36.637)" fill="#fa759e"/>
        <g id="Group_72" data-name="Group 72">
          <path id="Path_110" data-name="Path 110" d="M16.4,20.574c.106-.812,3.875-4.258.554-6.814-2.441-1.878-4.793.6-5.045.909-.252-.308-2.6-2.787-5.045-.909-3.322,2.555.447,6,.554,6.814s-.33,1.746.255,3.747a4,4,0,0,0,.908,1.593A.647.647,0,0,0,9.7,25.35c-.317-1.618-.286-3.809,2.214-3.809s2.531,2.191,2.214,3.809a.647.647,0,0,0,1.113.564,4,4,0,0,0,.909-1.593C16.731,22.32,16.294,21.387,16.4,20.574Z" transform="translate(-4.756 -12.833)" fill="#d4fbff"/>
          <path id="Path_111" data-name="Path 111" d="M76.35,20.574c.106-.812,3.875-4.258.554-6.814-2.441-1.878-4.793.6-5.045.909-.252-.308-2.6-2.787-5.045-.909-3.322,2.555.447,6,.554,6.814s-.33,1.746.255,3.747a4,4,0,0,0,.908,1.593.647.647,0,0,0,1.113-.564c-.317-1.618-.286-3.809,2.214-3.809s2.531,2.191,2.214,3.809a.647.647,0,0,0,1.113.564,4,4,0,0,0,.909-1.593C76.68,22.32,76.243,21.387,76.35,20.574Z" transform="translate(-50.744 -12.833)" fill="#d4fbff"/>
          <g id="Group_70" data-name="Group 70" transform="translate(14.705 0.231)">
            <path id="Path_112" data-name="Path 112" d="M66.819,14.46c2.011-1.547,3.961-.138,4.727.579a.464.464,0,0,0,.636,0c.766-.717,2.716-2.126,4.727-.579a3.141,3.141,0,0,1,1.343,2.147,3,3,0,0,0-1.343-2.846c-2.441-1.878-4.793.6-5.045.909-.252-.308-2.6-2.787-5.045-.909a3,3,0,0,0-1.343,2.846A3.139,3.139,0,0,1,66.819,14.46Z" transform="translate(-65.454 -13.065)" fill="#fff"/>
          </g>
          <g id="Group_71" data-name="Group 71">
            <path id="Path_113" data-name="Path 113" d="M74.945,109.928H72.733a.233.233,0,0,0,0,.466h2.212a.233.233,0,0,0,0-.466Z" transform="translate(-56.154 -87.139)" fill="#3a2c60"/>
            <path id="Path_114" data-name="Path 114" d="M29.8,19.67a1.168,1.168,0,0,0-.854-.372h-.505c.058-.089.12-.182.181-.274.953-1.433,2.728-4.1-.012-6.207-2.142-1.648-4.316-.171-5.187.743-.87-.914-3.044-2.391-5.187-.743-2.739,2.107-.965,4.774-.012,6.207.061.092.123.185.181.275H14.481c.058-.089.12-.182.181-.275.953-1.433,2.727-4.1-.012-6.207-2.141-1.647-4.316-.171-5.187.743-.87-.914-3.043-2.392-5.187-.743-2.739,2.107-.965,4.774-.012,6.207.061.092.123.185.181.275H3.475a1.164,1.164,0,0,0-1.161,1.251l.961,12.84a2.1,2.1,0,0,0,2.09,1.939H17.841a.233.233,0,1,0,0-.466H5.364a1.637,1.637,0,0,1-1.626-1.509L2.778,20.514a.7.7,0,0,1,.7-.751H4.715a.363.363,0,0,1,.026.081,3.992,3.992,0,0,1-.016.812A7.363,7.363,0,0,0,5,23.627a4.229,4.229,0,0,0,.961,1.685.88.88,0,0,0,1.513-.766,3.709,3.709,0,0,1,.33-2.9,2.031,2.031,0,0,1,1.655-.634,2.031,2.031,0,0,1,1.655.634,3.707,3.707,0,0,1,.33,2.9.865.865,0,0,0,.466.959.894.894,0,0,0,.4.1.871.871,0,0,0,.644-.29,4.228,4.228,0,0,0,.961-1.685,7.358,7.358,0,0,0,.278-2.97,3.992,3.992,0,0,1-.016-.812.363.363,0,0,1,.026-.081h4.465a.363.363,0,0,1,.026.081,3.992,3.992,0,0,1-.016.812,7.364,7.364,0,0,0,.279,2.97,4.229,4.229,0,0,0,.96,1.685.88.88,0,0,0,1.514-.766,3.707,3.707,0,0,1,.33-2.9,2.031,2.031,0,0,1,1.655-.634,2.031,2.031,0,0,1,1.655.634,3.707,3.707,0,0,1,.33,2.9.865.865,0,0,0,.466.959.89.89,0,0,0,.4.1.871.871,0,0,0,.644-.291,4.228,4.228,0,0,0,.961-1.685,7.358,7.358,0,0,0,.278-2.97,3.992,3.992,0,0,1-.016-.812.359.359,0,0,1,.026-.081h.775a.7.7,0,0,1,.7.751l-.961,12.84a1.637,1.637,0,0,1-1.626,1.509H22.208a.233.233,0,1,0,0,.466h4.85a2.1,2.1,0,0,0,2.09-1.939l.961-12.84a1.169,1.169,0,0,0-.308-.879ZM13.737,20.695a6.865,6.865,0,0,1-.261,2.8,3.763,3.763,0,0,1-.857,1.5.415.415,0,0,1-.713-.362,3.914,3.914,0,0,0-.427-3.283,2.468,2.468,0,0,0-2.015-.8,2.468,2.468,0,0,0-2.015.8,3.915,3.915,0,0,0-.428,3.283A.414.414,0,0,1,6.308,25a3.765,3.765,0,0,1-.857-1.5,6.865,6.865,0,0,1-.261-2.8,4.307,4.307,0,0,0,.013-.911,3.125,3.125,0,0,0-.551-1.019c-.93-1.4-2.487-3.738-.092-5.58s4.7.844,4.723.872a.233.233,0,0,0,.36,0c.023-.027,2.331-2.711,4.723-.872s.838,4.182-.092,5.58a3.123,3.123,0,0,0-.551,1.019A4.311,4.311,0,0,0,13.737,20.695Zm13.961,0a6.866,6.866,0,0,1-.261,2.8A3.761,3.761,0,0,1,26.58,25a.414.414,0,0,1-.713-.362,3.914,3.914,0,0,0-.427-3.283,2.468,2.468,0,0,0-2.015-.8,2.468,2.468,0,0,0-2.015.8,3.914,3.914,0,0,0-.427,3.283.414.414,0,0,1-.713.361,3.766,3.766,0,0,1-.856-1.5,6.868,6.868,0,0,1-.262-2.8,4.307,4.307,0,0,0,.013-.911,3.125,3.125,0,0,0-.551-1.019c-.93-1.4-2.487-3.738-.092-5.58s4.7.844,4.723.872a.241.241,0,0,0,.36,0c.023-.027,2.331-2.712,4.723-.872s.838,4.182-.092,5.58a3.128,3.128,0,0,0-.55,1.019,4.277,4.277,0,0,0,.013.911Z" transform="translate(-2.31 -12.073)" fill="#3a2c60"/>
          </g>
        </g>
      </g>
    </g>
  </g>
</svg>
